<?xml version="1.0" encoding="UTF-8"?>
<svg width="60px" height="59px" viewBox="0 0 60 59" version="1.1" xmlns="http://www.w3.org/2000/svg" xmlns:xlink="http://www.w3.org/1999/xlink">
    <!-- Generator: sketchtool 40.2 (33826) - http://www.bohemiancoding.com/sketch -->
    <title>02B4FD67-653C-40D0-A321-F3C987156CA4</title>
    <desc>Created with sketchtool.</desc>
    <defs></defs>
    <g id="Empire_dev_v.1.0" stroke="none" stroke-width="1" fill="none" fill-rule="evenodd">
        <g id="index_1200" transform="translate(-522.000000, -660.000000)">
            <g id="Category" transform="translate(55.000000, 660.000000)">
                <g id="Group-3" transform="translate(419.000000, 0.000000)">
                    <g id="ek_icon-03" transform="translate(48.000000, 0.000000)">
                        <g id="Слой_1">
                            <ellipse id="Oval" cx="29.5081967" cy="29.0244558" rx="29.5081967" ry="29.0244558"></ellipse>
                            <g id="Group">
                                <path d="M58.9180328,26.7024993 C58.9180328,26.9927439 59.0163934,27.2829884 59.0163934,27.6699812 C58.9180328,27.2829884 58.9180328,26.9927439 58.9180328,26.7024993 L58.9180328,26.7024993 Z" id="Shape"></path>
                                <path d="M58.7213115,25.1545284 C58.8196721,25.5415211 58.8196721,25.9285138 58.8196721,26.3155066 C58.8196721,25.9285138 58.8196721,25.5415211 58.7213115,25.1545284 L58.7213115,25.1545284 Z" id="Shape"></path>
                                <path d="M59.0163934,29.0244558 C59.0163934,29.6049449 59.0163934,30.185434 58.9180328,30.7659231 C59.0163934,30.185434 59.0163934,29.6049449 59.0163934,29.0244558 L59.0163934,29.0244558 Z" id="Shape"></path>
                                <path d="M50.852459,8.9975813 C52.4262295,10.6423005 53.8032787,12.480516 54.9836066,14.4154797 C53.8032787,12.480516 52.4262295,10.6423005 50.852459,8.9975813 L50.852459,8.9975813 Z" id="Shape"></path>
                                <path d="M49.1803279,7.35286213 C49.7704918,7.83660306 50.2622951,8.32034399 50.7540984,8.90083311 C50.2622951,8.41709218 49.6721311,7.83660306 49.1803279,7.35286213 L49.1803279,7.35286213 Z" id="Shape"></path>
                                <path d="M58.9180328,31.2496641 C58.9180328,31.6366568 58.8196721,32.1203977 58.8196721,32.5073905 C58.8196721,32.1203977 58.9180328,31.6366568 58.9180328,31.2496641 L58.9180328,31.2496641 Z" id="Shape"></path>
                                <path d="M52.6229508,47.0196184 C52.9180328,46.6326256 53.2131148,46.2456329 53.5081967,45.8586402 C53.2131148,46.2456329 52.9180328,46.6326256 52.6229508,47.0196184 L52.6229508,47.0196184 L52.6229508,47.0196184 Z" id="Shape"></path>
                                <path d="M54.3934426,44.6976619 C54.0983607,45.0846547 53.9016393,45.4716474 53.6065574,45.8586402 C53.8032787,45.4716474 54.0983607,45.0846547 54.3934426,44.6976619 L54.3934426,44.6976619 Z" id="Shape"></path>
                                <path d="M58.7213115,32.9911314 C58.6229508,33.4748723 58.6229508,33.8618651 58.5245902,34.345606 C58.6229508,33.8618651 58.6229508,33.4748723 58.7213115,32.9911314 L58.7213115,32.9911314 Z" id="Shape"></path>
                                <path d="M58.4262295,34.6358506 C58.3278689,35.2163397 58.2295082,35.7968288 58.0327869,36.2805697 C58.2295082,35.7968288 58.3278689,35.2163397 58.4262295,34.6358506 L58.4262295,34.6358506 Z" id="Shape"></path>
                                <path d="M39.2459016,1.64471916 C39.9344262,1.83821553 40.5245902,2.12846009 41.2131148,2.41870465 C40.5245902,2.12846009 39.9344262,1.83821553 39.2459016,1.64471916 L39.2459016,1.64471916 Z" id="Shape"></path>
                                <path d="M36.7868852,0.870733674 C37.4754098,1.06423005 38.1639344,1.25772642 38.852459,1.45122279 C38.1639344,1.25772642 37.4754098,1.06423005 36.7868852,0.870733674 L36.7868852,0.870733674 Z" id="Shape"></path>
                                <path d="M32.1639344,0.096748186 C32.852459,0.193496372 33.5409836,0.290244558 34.2295082,0.386992744 C33.5409836,0.290244558 32.852459,0.193496372 32.1639344,0.096748186 L32.1639344,0.096748186 Z" id="Shape"></path>
                                <path d="M29.5081967,0 C30.295082,0 30.9836066,0 31.7704918,0.096748186 C30.9836066,0 30.295082,0 29.5081967,0 L29.5081967,0 Z" id="Shape"></path>
                                <path d="M27.9344262,0 L29.5081967,0 L27.9344262,0 L27.9344262,0 Z" id="Shape"></path>
                                <path d="M54.9836066,43.6334319 C55.2786885,43.1496909 55.5737705,42.66595 55.7704918,42.1822091 C55.5737705,42.66595 55.2786885,43.1496909 54.9836066,43.6334319 L54.9836066,43.6334319 L54.9836066,43.6334319 Z" id="Shape"></path>
                                <path d="M34.6229508,0.48374093 C35.3114754,0.580489116 36,0.773985488 36.6885246,0.870733674 C36,0.677237302 35.3114754,0.580489116 34.6229508,0.48374093 L34.6229508,0.48374093 Z" id="Shape"></path>
                                <path d="M26.4590164,0.193496372 C26.852459,0.193496372 27.147541,0.096748186 27.5409836,0.096748186 C27.147541,0.096748186 26.7540984,0.096748186 26.4590164,0.193496372 L26.4590164,0.193496372 Z" id="Shape"></path>
                                <path d="M47.4098361,5.90163934 C48,6.38538027 48.5901639,6.77237302 49.1803279,7.35286213 C48.5901639,6.8691212 48,6.38538027 47.4098361,5.90163934 L47.4098361,5.90163934 Z" id="Shape"></path>
                                <path d="M43.4754098,3.48293469 C44.0655738,3.77317925 44.7540984,4.160172 45.3442623,4.54716474 C44.6557377,4.160172 44.0655738,3.77317925 43.4754098,3.48293469 L43.4754098,3.48293469 Z" id="Shape"></path>
                                <path d="M41.4098361,2.51545284 C42,2.80569739 42.6885246,3.09594195 43.2786885,3.38618651 C42.6885246,3.09594195 42.0983607,2.80569739 41.4098361,2.51545284 L41.4098361,2.51545284 Z" id="Shape"></path>
                                <path d="M45.5409836,4.64391293 C46.1311475,5.03090567 46.7213115,5.41789841 47.3114754,5.90163934 C46.7213115,5.41789841 46.1311475,5.03090567 45.5409836,4.64391293 L45.5409836,4.64391293 Z" id="Shape"></path>
                                <path d="M18.295082,24.7675356 L26.1639344,27.0894921 C26.3606557,26.7024993 26.7540984,26.3155066 27.147541,26.2187584 C27.442623,26.1220102 27.7377049,26.2187584 27.9344262,26.4122548 L28.3278689,26.7024993 C28.8196721,26.6057511 29.4098361,26.509003 29.704918,26.8959957 C29.8032787,26.9927439 29.8032787,27.0894921 29.9016393,27.2829884 C29.9016393,27.3797366 30,27.3797366 30,27.4764848 C30.5901639,27.1862403 31.4754098,26.9927439 32.2622951,27.4764848 C32.6557377,27.7667294 32.852459,27.9602257 33.0491803,28.2504703 C33.3442623,28.1537221 33.6393443,28.1537221 34.0327869,28.3472185 C34.2295082,28.4439667 34.3278689,28.5407149 34.4262295,28.637463 C34.5245902,28.5407149 34.6229508,28.5407149 34.7213115,28.5407149 C34.9180328,28.5407149 35.2131148,28.5407149 35.4098361,28.7342112 C35.6065574,28.9277076 35.8032787,29.121204 35.9016393,29.2179522 C36.4918033,28.9277076 37.3770492,28.7342112 38.1639344,29.3147003 C38.557377,29.6049449 38.7540984,29.8951895 38.9508197,30.0886858 C39.147541,29.8951895 39.3442623,29.7016931 39.7377049,29.7016931 C39.9344262,29.7016931 40.1311475,29.7984413 40.2295082,29.9919377 C40.3278689,30.0886858 40.3278689,30.185434 40.4262295,30.2821822 C40.5245902,30.185434 40.7213115,30.0886858 40.9180328,30.0886858 C41.1147541,30.0886858 41.5081967,30.0886858 41.8032787,30.5724268 C42.4918033,31.4431604 42.0983607,33.4748723 42.0983607,33.6683687 L42.0983607,33.7651169 C42.8852459,33.9586133 43.5737705,34.2488578 44.0655738,34.345606 C44.852459,29.8951895 47.8032787,22.8325719 49.9672131,20.3171191 L48.6885246,19.9301263 C48.6885246,19.9301263 48.295082,20.5106154 47.704918,20.5106154 L47.4098361,20.5106154 C46.6229508,20.3171191 46.2295082,19.252889 46.2295082,19.252889 C46.2295082,19.252889 46.0327869,19.3496372 45.8360656,19.5431336 C46.0327869,19.7366299 46.1311475,19.9301263 46.3278689,20.1236227 C46.6229508,20.6073636 46.6229508,21.2846009 46.4262295,21.7683418 C46.1311475,22.6390755 45.2459016,23.2195646 44.3606557,23.2195646 C44.0655738,23.2195646 43.8688525,23.2195646 43.5737705,23.1228164 C42.9836066,22.9293201 42.5901639,22.5423273 42.295082,21.9618382 C42,21.4780973 42,20.80086 42.1967213,20.3171191 C42.4918033,19.6398818 43.0819672,19.1561408 43.7704918,18.9626445 C43.6721311,18.8658963 43.6721311,18.7691481 43.6721311,18.7691481 C43.6721311,18.7691481 43.0819672,19.1561408 42.5901639,19.1561408 L42.295082,19.1561408 C41.704918,18.9626445 41.3114754,18.0919108 41.3114754,18.0919108 C41.3114754,18.0919108 30.9836066,15.3829616 23.0163934,13.4479979 C22.9180328,13.544746 22.7213115,13.6414942 22.6229508,13.544746 C21.2459016,13.2545015 17.2131148,13.544746 14.852459,13.7382424 C15.6393443,14.3187315 17.1147541,15.3829616 19.8688525,16.7374362 C24,18.7691481 34.2295082,21.6715937 37.5737705,22.6390755 C38.1639344,22.8325719 38.557377,22.9293201 38.6557377,22.9293201 C38.9508197,23.0260683 39.0491803,23.3163128 38.9508197,23.5098092 C38.852459,23.7033056 38.6557377,23.8000537 38.4590164,23.8000537 L38.2622951,23.8000537 C38.1639344,23.8000537 37.8688525,23.7033056 37.2786885,23.5098092 C33.9344262,22.5423273 23.6065574,19.6398818 19.3770492,17.6081698 C15.2459016,15.5764579 13.7704918,14.2219833 13.3770492,13.7382424 L6.98360656,11.9967751 C6.39344262,12.6740124 5.90163934,13.4479979 5.40983607,14.2219833 C6.98360656,17.3179253 10.5245902,21.9618382 18.295082,24.7675356 L18.295082,24.7675356 Z" id="Shape"></path>
                                <path d="M18.9836066,12.1902714 C17.4098361,11.8032787 16.1311475,11.5130341 15.2459016,11.3195378 C13.1803279,10.8357968 10.6229508,10.5455523 8.26229508,10.2553077 C8.06557377,10.4488041 7.86885246,10.7390486 7.67213115,10.932545 L13.7704918,12.5772642 C14.2622951,12.5772642 16.7213115,12.2870196 18.9836066,12.1902714 L18.9836066,12.1902714 Z" id="Shape"></path>
                                <path d="M44.2622951,19.7366299 C43.7704918,19.7366299 43.2786885,20.0268745 43.0819672,20.5106154 C42.8852459,21.1878527 43.1803279,21.86509 43.8688525,22.0585864 C43.9672131,22.1553346 44.1639344,22.1553346 44.2622951,22.1553346 C44.7540984,22.1553346 45.2459016,21.86509 45.442623,21.3813491 C45.6393443,20.7041118 45.3442623,20.0268745 44.6557377,19.8333781 C44.557377,19.7366299 44.4590164,19.7366299 44.2622951,19.7366299 L44.2622951,19.7366299 Z" id="Shape"></path>
                                <path d="M12.4918033,24.0902983 C12.4918033,24.0902983 15.2459016,25.8317657 19.3770492,26.9927439 C22.4262295,27.8634776 34.8196721,31.5399086 41.1147541,33.4748723 C41.2131148,32.7008869 41.3114754,31.5399086 41.0163934,31.1529159 L41.0163934,31.1529159 C40.9180328,31.2496641 40.9180328,31.3464123 40.9180328,31.3464123 L40.5245902,32.2171459 L40.0327869,31.4431604 C40.0327869,31.4431604 39.8360656,31.1529159 39.7377049,30.9594195 C39.6393443,31.1529159 39.442623,31.2496641 39.2459016,31.3464123 C38.9508197,31.4431604 38.6557377,31.5399086 38.3606557,30.9594195 C38.2622951,30.7659231 38.1639344,30.5724268 37.6721311,30.185434 C37.0819672,29.7016931 36.0983607,30.3789304 36.0983607,30.3789304 L35.6065574,30.7659231 L35.4098361,30.185434 C35.4098361,30.185434 35.3114754,29.9919377 35.0163934,29.7016931 C34.9180328,29.7984413 34.7213115,29.9919377 34.5245902,29.9919377 C34.1311475,29.9919377 34.0327869,29.7016931 33.9344262,29.6049449 C33.8360656,29.5081967 33.8360656,29.4114485 33.6393443,29.3147003 C33.6393443,29.3147003 33.5409836,29.2179522 33.442623,29.3147003 L32.9508197,29.9919377 L32.557377,29.3147003 C32.557377,29.3147003 32.2622951,28.8309594 31.6721311,28.4439667 C31.2786885,28.1537221 30.3934426,28.5407149 30.1967213,28.637463 L30,28.7342112 L29.704918,28.7342112 C29.4098361,28.637463 29.2131148,28.3472185 29.0163934,27.9602257 C29.0163934,27.8634776 28.9180328,27.8634776 28.9180328,27.7667294 C28.8196721,27.7667294 28.5245902,27.8634776 28.3278689,27.8634776 L28.0327869,27.9602257 L27.2459016,27.2829884 C27.2459016,27.2829884 26.9508197,27.6699812 26.7540984,28.0569739 L26.557377,28.4439667 L17.8032787,25.8317657 C10.8196721,23.2195646 7.08196721,19.252889 5.31147541,16.3504434 C5.01639344,15.9634507 4.81967213,15.5764579 4.62295082,15.1894652 C4.32786885,15.5764579 4.13114754,16.0601989 3.93442623,16.5439398 C5.70491803,18.9626445 8.26229508,21.86509 12.4918033,24.0902983 L12.4918033,24.0902983 Z" id="Shape"></path>
                                <path d="M41.6065574,16.9309325 L42,17.0276807 L42.295082,17.4146735 C42.3934426,17.6081698 42.5901639,17.8984144 42.6885246,17.9951626 C42.7868852,17.9951626 42.9836066,17.8984144 43.1803279,17.8016662 L44.0655738,17.2211771 L44.557377,18.188659 C44.6557377,18.3821553 44.9508197,18.6723999 45.0491803,18.6723999 C45.2459016,18.6723999 45.5409836,18.4789035 45.7377049,18.3821553 L46.8196721,17.5114217 L47.2131148,18.8658963 C47.3114754,19.0593926 47.5081967,19.4463854 47.704918,19.5431336 C47.8032787,19.5431336 47.9016393,19.4463854 47.9016393,19.4463854 L48.295082,18.8658963 L48.9836066,19.0593926 L52.9180328,20.1236227 L53.4098361,20.2203709 L53.6065574,20.7041118 C53.704918,20.9943564 54,21.3813491 54.0983607,21.4780973 C54.1967213,21.4780973 54.4918033,21.2846009 54.5901639,21.1878527 L55.8688525,20.0268745 L56.2622951,21.6715937 C56.3606557,21.9618382 56.557377,22.348831 56.6557377,22.348831 C56.7540984,22.348831 56.852459,22.2520828 56.9508197,22.1553346 L57.147541,21.9618382 C53.8032787,9.86831497 42.6885246,0.96748186 29.5081967,0.96748186 C21.5409836,0.96748186 14.2622951,4.25692018 9.14754098,9.38457404 C11.3114754,9.6748186 13.5737705,9.96506316 15.5409836,10.4488041 C20.9508197,11.6097823 40.8196721,16.7374362 41.6065574,16.9309325 L41.6065574,16.9309325 Z" id="Shape"></path>
                                <path d="M56.2622951,23.2195646 C55.4754098,22.9293201 55.2786885,21.7683418 55.2786885,21.7683418 C55.2786885,21.7683418 54.5901639,22.348831 54,22.348831 L53.704918,22.348831 C53.0163934,22.1553346 52.6229508,20.9943564 52.6229508,20.9943564 L51.0491803,20.6073636 C48.9836066,22.5423273 45.442623,30.7659231 44.9508197,35.1195915 C44.9508197,35.2163397 44.9508197,35.2163397 44.852459,35.3130879 C44.6557377,36.2805697 44.4590164,38.0220371 45.147541,38.6025262 C45.9344262,39.2797635 47.1147541,39.8602526 47.9016393,39.8602526 C48.0983607,39.8602526 48.295082,39.8602526 48.3934426,39.7635044 C49.0819672,39.4732599 51.442623,35.7000806 55.1803279,35.7000806 C55.7704918,35.7000806 56.4590164,35.7968288 57.147541,35.9903252 C57.7377049,33.7651169 58.0327869,31.4431604 58.0327869,29.0244558 C58.0327869,26.8959957 57.8360656,24.8642838 57.3442623,22.9293201 C57.147541,23.1228164 56.852459,23.2195646 56.557377,23.2195646 C56.4590164,23.2195646 56.3606557,23.2195646 56.2622951,23.2195646 L56.2622951,23.2195646 Z M54,32.0236496 C53.5081967,33.281376 52.3278689,34.1521096 50.852459,34.1521096 C50.4590164,34.1521096 50.0655738,34.0553615 49.7704918,33.9586133 C48.9836066,33.6683687 48.295082,33.0878796 47.9016393,32.3138941 C47.5081967,31.5399086 47.5081967,30.669175 47.8032787,29.7984413 C48.295082,28.5407149 49.4754098,27.6699812 50.9508197,27.6699812 C51.3442623,27.6699812 51.7377049,27.7667294 52.0327869,27.8634776 C52.8196721,28.1537221 53.5081967,28.7342112 53.9016393,29.5081967 C54.1967213,30.2821822 54.295082,31.1529159 54,32.0236496 L54,32.0236496 Z" id="Shape"></path>
                                <path d="M51.6393443,48.1805966 L51.6393443,48.1805966 C49.5737705,50.4058049 47.2131148,52.4375168 44.557377,53.9854878 C47.2131148,52.4375168 49.5737705,50.5025531 51.6393443,48.1805966 L51.6393443,48.1805966 Z" id="Shape"></path>
                                <path d="M37.1803279,50.6960494 C35.4098361,51.2765386 33.9344262,52.0505241 32.3606557,52.8245095 C30,53.9854878 27.5409836,55.2432142 24.1967213,55.8237033 C23.704918,55.9204515 23.2131148,56.1139479 22.7213115,56.3074442 C24.8852459,56.7911852 27.147541,57.0814297 29.5081967,57.0814297 C37.5737705,57.0814297 44.852459,53.7919914 50.0655738,48.4708412 C48.7868852,48.6643375 47.3114754,48.8578339 45.9344262,49.0513303 C42.6885246,49.5350712 39.3442623,49.922064 37.1803279,50.6960494 L37.1803279,50.6960494 Z" id="Shape"></path>
                                <path d="M26.7540984,51.1797904 C23.2131148,42.3757055 15.5409836,38.505778 15.5409836,38.4090298 C15.3442623,38.3122816 15.2459016,38.0220371 15.3442623,37.7317925 C15.442623,37.5382962 15.7377049,37.441548 16.0327869,37.5382962 C16.3278689,37.7317925 24.1967213,41.6984682 27.8360656,50.986294 C28.8196721,50.6960494 29.5081967,50.1155603 30.3934426,49.5350712 C31.6721311,48.5675894 33.147541,47.5033593 36,46.9228702 L38.9508197,46.3423811 C42.4918033,45.5683956 44.1639344,45.278151 48.6885246,44.6009137 C50.7540984,44.3106692 52.5245902,44.0204246 53.8032787,43.8269282 C55.1803279,41.6984682 56.1639344,39.3765117 56.9508197,36.957807 L56.9508197,36.957807 C56.3606557,36.7643107 55.8688525,36.6675625 55.2786885,36.6675625 C52.8196721,36.6675625 51.0491803,38.6025262 49.9672131,39.7635044 C49.4754098,40.2472454 49.2786885,40.5374899 48.8852459,40.7309863 C48.5901639,40.8277345 48.295082,40.9244827 47.9016393,40.9244827 C46.7213115,40.9244827 45.3442623,40.1504972 44.557377,39.4732599 C43.5737705,38.6025262 43.6721311,36.7643107 43.8688525,35.4098361 C39.8360656,34.1521096 22.7213115,29.121204 19.1803279,28.0569739 C15.147541,26.8959957 12.3934426,25.2512765 12.0983607,25.0577802 C7.86885246,22.7358237 5.31147541,19.9301263 3.54098361,17.4146735 C1.86885246,20.8976082 0.983606557,24.8642838 0.983606557,29.0244558 C0.983606557,40.5374899 8.06557377,50.4058049 18.0983607,54.7594733 C20.852459,52.8245095 24.3934426,51.3732868 26.4590164,51.2765386 C26.557377,51.2765386 26.6557377,51.1797904 26.7540984,51.1797904 L26.7540984,51.1797904 Z M21.8360656,47.4066111 C21.147541,47.6001075 20.4590164,47.6968557 19.8688525,47.6968557 C15.442623,47.6968557 13.8688525,43.3431873 12.0983607,38.6992744 C11.6065574,37.441548 11.2131148,36.1838216 10.6229508,35.0228433 L10.3278689,34.345606 L11.1147541,34.345606 C11.4098361,34.345606 18.4918033,34.4423542 21.8360656,35.6033324 C24.0983607,36.3773179 25.5737705,38.6992744 26.0655738,40.4407417 C26.557377,41.9887127 26.4590164,43.4399355 25.8688525,44.213921 C25.6721311,44.4074174 25.3770492,44.5041655 25.1803279,44.3106692 C24.9836066,44.1171728 24.8852459,43.8269282 25.0819672,43.6334319 C25.4754098,43.0529428 25.5737705,41.9887127 25.1803279,40.7309863 C24.6885246,39.1830153 23.5081967,37.1513034 21.5409836,36.5708143 C18.9836066,35.7000806 13.7704918,35.5065843 11.9016393,35.4098361 C12.295082,36.4740661 12.6885246,37.441548 13.0819672,38.505778 C15.0491803,43.7301801 16.5245902,47.8903521 21.6393443,46.6326256 C21.9344262,46.5358775 22.1311475,46.7293738 22.2295082,47.0196184 C22.3278689,47.0196184 22.1311475,47.3098629 21.8360656,47.4066111 L21.8360656,47.4066111 Z" id="Shape"></path>
                                <path d="M31.8688525,51.9537759 C33.442623,51.1797904 35.0163934,50.3090567 36.7868852,49.7285676 C39.0491803,48.9545821 42.3934426,48.5675894 45.7377049,48.0838484 C47.5081967,47.8903521 49.3770492,47.6001075 51.0491803,47.3098629 C51.7377049,46.5358775 52.3278689,45.761892 52.9180328,44.8911583 C51.7377049,45.0846547 50.2622951,45.278151 48.5901639,45.4716474 C44.0655738,46.1488847 42.4918033,46.4391293 38.9508197,47.2131148 L36,47.7936039 C33.442623,48.374093 32.1639344,49.438323 30.8852459,50.3090567 C29.704918,51.1797904 28.5245902,52.0505241 26.4590164,52.2440204 C24.6885246,52.3407686 21.7377049,53.598495 19.1803279,55.2432142 C19.8688525,55.5334587 20.6557377,55.7269551 21.3442623,56.0171997 C22.1311475,55.5334587 23.0163934,55.146466 24,54.9529696 C27.147541,54.2757323 29.6065574,53.1147541 31.8688525,51.9537759 L31.8688525,51.9537759 Z" id="Shape"></path>
                                <path d="M51.6393443,28.7342112 C51.3442623,28.637463 51.147541,28.637463 50.852459,28.637463 C49.8688525,28.637463 48.9836066,29.2179522 48.6885246,30.185434 C48.295082,31.3464123 48.8852459,32.7008869 50.0655738,33.0878796 C50.3606557,33.1846278 50.557377,33.1846278 50.852459,33.1846278 C51.8360656,33.1846278 52.7213115,32.6041387 53.0163934,31.6366568 C53.5081967,30.4756786 52.8196721,29.121204 51.6393443,28.7342112 L51.6393443,28.7342112 Z M51.5409836,31.1529159 C51.442623,31.5399086 50.9508197,31.733405 50.557377,31.5399086 C50.1639344,31.4431604 49.9672131,30.9594195 50.1639344,30.5724268 C50.2622951,30.185434 50.7540984,29.9919377 51.147541,30.185434 C51.5409836,30.3789304 51.7377049,30.7659231 51.5409836,31.1529159 L51.5409836,31.1529159 Z" id="Shape"></path>
                                <path d="M4.2295082,14.028487 L4.2295082,14.028487 C3.93442623,14.5122279 3.73770492,14.8992206 3.44262295,15.3829616 L3.44262295,15.3829616 C3.73770492,14.8992206 4.03278689,14.4154797 4.2295082,14.028487 L4.2295082,14.028487 Z" id="Shape"></path>
                                <path d="M7.08196721,10.1585595 L7.08196721,10.1585595 C6.8852459,10.3520559 6.78688525,10.5455523 6.59016393,10.7390486 L6.59016393,10.7390486 C6.78688525,10.5455523 6.98360656,10.3520559 7.08196721,10.1585595 L7.08196721,10.1585595 Z" id="Shape"></path>
                                <path d="M55.8688525,42.0854609 C56.6557377,40.5374899 57.3442623,38.9895189 57.8360656,37.3447998 L57.8360656,37.3447998 C57.2459016,38.9895189 56.6557377,40.5374899 55.8688525,42.0854609 L55.8688525,42.0854609 Z" id="Shape"></path>
                                <path d="M58.7213115,25.0577802 C58.6229508,24.6707874 58.6229508,24.1870465 58.5245902,23.8000537 L58.5245902,23.8000537 C58.6229508,24.1870465 58.7213115,24.6707874 58.7213115,25.0577802 L58.7213115,25.0577802 Z" id="Shape"></path>
                                <path d="M57.8360656,20.80086 C57.147541,18.5756517 56.1639344,16.4471916 55.0819672,14.5122279 C56.1639344,16.4471916 57.147541,18.5756517 57.8360656,20.80086 L57.8360656,20.80086 L57.8360656,20.80086 Z" id="Shape"></path>
                                <path d="M6,11.5130341 L6,11.5130341 C5.60655738,11.9967751 5.31147541,12.480516 4.91803279,12.9642569 L4.91803279,12.9642569 C5.21311475,12.480516 5.60655738,11.9967751 6,11.5130341 L6,11.5130341 Z" id="Shape"></path>
                                <path d="M13.5737705,53.4049987 C14.7540984,54.1789841 15.9344262,54.7594733 17.2131148,55.3399624 L17.2131148,55.3399624 C15.9344262,54.8562214 14.6557377,54.1789841 13.5737705,53.4049987 L13.5737705,53.4049987 Z" id="Shape"></path>
                                <path d="M21.5409836,56.9846815 C22.8196721,57.3716743 24.0983607,57.5651707 25.3770492,57.758667 C24,57.5651707 22.7213115,57.2749261 21.5409836,56.9846815 L21.5409836,56.9846815 L21.5409836,56.9846815 Z" id="Shape"></path>
                                <path d="M2.95081967,16.3504434 C2.75409836,16.8341844 2.45901639,17.3179253 2.26229508,17.8016662 C2.45901639,17.3179253 2.75409836,16.8341844 2.95081967,16.3504434 L2.95081967,16.3504434 L2.95081967,16.3504434 Z" id="Shape"></path>
                                <path d="M7.37704918,48.1805966 C8.26229508,49.1480785 9.24590164,50.1155603 10.2295082,50.986294 C9.14754098,50.1155603 8.26229508,49.1480785 7.37704918,48.1805966 L7.37704918,48.1805966 Z" id="Shape"></path>
                                <path d="M37.2786885,57.0814297 C36.9836066,57.1781779 36.6885246,57.2749261 36.295082,57.2749261 C36.5901639,57.1781779 36.8852459,57.0814297 37.2786885,57.0814297 L37.2786885,57.0814297 Z" id="Shape"></path>
                                <path d="M41.6065574,55.4367106 C41.3114754,55.6302069 40.9180328,55.7269551 40.6229508,55.8237033 C40.9180328,55.8237033 41.3114754,55.6302069 41.6065574,55.4367106 L41.6065574,55.4367106 Z" id="Shape"></path>
                                <path d="M43.0819672,54.7594733 C42.6885246,54.9529696 42.3934426,55.146466 42,55.3399624 C42.3934426,55.146466 42.6885246,54.9529696 43.0819672,54.7594733 L43.0819672,54.7594733 Z" id="Shape"></path>
                                <path d="M3.63934426,43.0529428 C3.3442623,42.4724536 3.04918033,41.8919645 2.75409836,41.4082236 C3.04918033,41.9887127 3.3442623,42.4724536 3.63934426,43.0529428 L3.63934426,43.0529428 Z" id="Shape"></path>
                                <path d="M1.86885246,39.2797635 C1.67213115,38.6992744 1.47540984,38.1187853 1.27868852,37.5382962 C1.47540984,38.1187853 1.67213115,38.6992744 1.86885246,39.2797635 L1.86885246,39.2797635 Z" id="Shape"></path>
                                <path d="M2.6557377,41.117979 C2.45901639,40.6342381 2.16393443,40.1504972 1.96721311,39.5700081 C2.26229508,40.1504972 2.45901639,40.6342381 2.6557377,41.117979 L2.6557377,41.117979 Z" id="Shape"></path>
                                <path d="M0.295081967,33.1846278 C0.196721311,32.6041387 0.196721311,32.0236496 0.0983606557,31.4431604 C0.196721311,32.0236496 0.196721311,32.6041387 0.295081967,33.1846278 L0.295081967,33.1846278 Z" id="Shape"></path>
                                <path d="M4.72131148,44.6976619 C4.42622951,44.213921 4.13114754,43.7301801 3.83606557,43.1496909 C4.03278689,43.7301801 4.42622951,44.213921 4.72131148,44.6976619 L4.72131148,44.6976619 Z" id="Shape"></path>
                                <path d="M0.0983606557,30.9594195 C0,30.2821822 0,29.7016931 0,29.0244558 C0,29.7016931 0,30.2821822 0.0983606557,30.9594195 L0.0983606557,30.9594195 Z" id="Shape"></path>
                                <path d="M35.704918,57.3716743 C35.4098361,57.4684225 35.1147541,57.4684225 34.7213115,57.5651707 C35.1147541,57.5651707 35.4098361,57.4684225 35.704918,57.3716743 L35.704918,57.3716743 Z" id="Shape"></path>
                                <path d="M44.557377,53.9854878 C44.1639344,54.2757323 43.6721311,54.4692287 43.2786885,54.6627251 C43.7704918,54.4692287 44.1639344,54.1789841 44.557377,53.9854878 L44.557377,53.9854878 Z" id="Shape"></path>
                                <path d="M1.18032787,37.2480516 C0.983606557,36.7643107 0.885245902,36.1838216 0.786885246,35.7000806 C0.885245902,36.1838216 1.08196721,36.6675625 1.18032787,37.2480516 L1.18032787,37.2480516 Z" id="Shape"></path>
                                <path d="M0.68852459,35.2163397 C0.590163934,34.6358506 0.393442623,33.9586133 0.295081967,33.3781242 C0.393442623,33.9586133 0.590163934,34.6358506 0.68852459,35.2163397 L0.68852459,35.2163397 Z" id="Shape"></path>
                                <path d="M7.18032787,47.9871002 C6.29508197,47.0196184 5.50819672,45.9553883 4.81967213,44.8911583 C5.60655738,46.0521365 6.39344262,47.0196184 7.18032787,47.9871002 L7.18032787,47.9871002 Z" id="Shape"></path>
                                <path d="M31.0819672,58.0489116 L29.5081967,58.0489116 L31.0819672,58.0489116 L31.0819672,58.0489116 Z" id="Shape"></path>
                                <path d="M34.2295082,57.6619188 C33.9344262,57.758667 33.5409836,57.758667 33.2459016,57.758667 C33.5409836,57.758667 33.8360656,57.758667 34.2295082,57.6619188 L34.2295082,57.6619188 Z" id="Shape"></path>
                                <path d="M40.1311475,56.1139479 C39.8360656,56.210696 39.442623,56.3074442 39.147541,56.5009406 C39.5409836,56.3074442 39.8360656,56.210696 40.1311475,56.1139479 L40.1311475,56.1139479 Z" id="Shape"></path>
                                <path d="M38.7540984,56.5976888 C38.4590164,56.694437 38.1639344,56.7911852 37.7704918,56.8879334 C38.0655738,56.7911852 38.3606557,56.694437 38.7540984,56.5976888 L38.7540984,56.5976888 Z" id="Shape"></path>
                                <path d="M32.6557377,57.8554152 C32.2622951,57.8554152 31.9672131,57.9521634 31.5737705,57.9521634 C31.9672131,57.9521634 32.2622951,57.9521634 32.6557377,57.8554152 L32.6557377,57.8554152 Z" id="Shape"></path>
                                <path d="M13.4754098,53.4049987 C12.295082,52.6310132 11.2131148,51.8570277 10.2295082,50.986294 C11.3114754,51.8570277 12.3934426,52.6310132 13.4754098,53.4049987 L13.4754098,53.4049987 Z" id="Shape"></path>
                                <path d="M24.8852459,0.386992744 C25.1803279,0.290244558 25.5737705,0.290244558 25.8688525,0.290244558 C25.5737705,0.290244558 25.1803279,0.290244558 24.8852459,0.386992744 L24.8852459,0.386992744 Z" id="Shape"></path>
                                <path d="M20.3606557,56.5976888 C19.6721311,56.4041924 18.8852459,56.1139479 18.1967213,55.8237033 C18.8852459,56.1139479 19.5737705,56.4041924 20.3606557,56.5976888 L20.3606557,56.5976888 Z" id="Shape"></path>
                                <path d="M27.147541,57.9521634 C26.557377,57.9521634 26.0655738,57.8554152 25.4754098,57.758667 C26.0655738,57.8554152 26.6557377,57.9521634 27.147541,57.9521634 L27.147541,57.9521634 Z" id="Shape"></path>
                                <path d="M29.5081967,58.0489116 C28.9180328,58.0489116 28.2295082,58.0489116 27.6393443,57.9521634 C28.2295082,58.0489116 28.9180328,58.0489116 29.5081967,58.0489116 L29.5081967,58.0489116 Z" id="Shape"></path>
                                <path d="M0,29.0244558 L0,27.3797366 L0,29.0244558 L0,29.0244558 Z" id="Shape"></path>
                                <path d="M12.4918033,5.32115023 C12.7868852,5.12765386 13.1803279,4.8374093 13.4754098,4.64391293 C13.0819672,4.93415748 12.7868852,5.12765386 12.4918033,5.32115023 L12.4918033,5.32115023 Z" id="Shape"></path>
                                <path d="M13.7704918,4.54716474 C14.0655738,4.35366837 14.4590164,4.160172 14.7540984,3.96667562 C14.3606557,4.160172 14.0655738,4.35366837 13.7704918,4.54716474 L13.7704918,4.54716474 Z" id="Shape"></path>
                                <path d="M11.3114754,6.1918839 C11.6065574,5.90163934 12,5.70814297 12.295082,5.41789841 C11.9016393,5.70814297 11.6065574,5.99838753 11.3114754,6.1918839 L11.3114754,6.1918839 Z" id="Shape"></path>
                                <path d="M15.0491803,3.77317925 C15.3442623,3.57968288 15.6393443,3.38618651 16.0327869,3.28943832 C15.6393443,3.38618651 15.3442623,3.57968288 15.0491803,3.77317925 L15.0491803,3.77317925 Z" id="Shape"></path>
                                <path d="M10.1311475,7.15936576 C10.4262295,6.8691212 10.8196721,6.57887665 11.1147541,6.38538027 C10.7213115,6.57887665 10.4262295,6.8691212 10.1311475,7.15936576 L10.1311475,7.15936576 Z" id="Shape"></path>
                                <path d="M20.4590164,1.3544746 C20.7540984,1.25772642 21.0491803,1.16097823 21.3442623,1.06423005 C21.147541,1.16097823 20.7540984,1.25772642 20.4590164,1.3544746 L20.4590164,1.3544746 Z" id="Shape"></path>
                                <path d="M21.9344262,0.96748186 C22.2295082,0.870733674 22.5245902,0.773985488 22.8196721,0.773985488 C22.5245902,0.773985488 22.2295082,0.870733674 21.9344262,0.96748186 L21.9344262,0.96748186 Z" id="Shape"></path>
                                <path d="M23.4098361,0.580489116 C23.704918,0.48374093 24,0.48374093 24.295082,0.386992744 C24,0.48374093 23.704918,0.580489116 23.4098361,0.580489116 L23.4098361,0.580489116 Z" id="Shape"></path>
                                <path d="M8.95081967,8.22359581 C9.24590164,7.93335125 9.63934426,7.64310669 9.93442623,7.35286213 C9.63934426,7.54635851 9.3442623,7.83660306 8.95081967,8.22359581 L8.95081967,8.22359581 Z" id="Shape"></path>
                                <path d="M17.704918,2.41870465 C18,2.32195646 18.295082,2.12846009 18.6885246,2.03171191 C18.295082,2.12846009 18,2.32195646 17.704918,2.41870465 L17.704918,2.41870465 Z" id="Shape"></path>
                                <path d="M19.0819672,1.83821553 C19.3770492,1.74146735 19.6721311,1.64471916 19.9672131,1.54797098 C19.6721311,1.64471916 19.3770492,1.74146735 19.0819672,1.83821553 L19.0819672,1.83821553 Z" id="Shape"></path>
                                <path d="M16.3278689,3.09594195 C16.6229508,2.90244558 16.9180328,2.80569739 17.3114754,2.61220102 C16.9180328,2.70894921 16.6229508,2.90244558 16.3278689,3.09594195 L16.3278689,3.09594195 Z" id="Shape"></path>
                                <path d="M1.27868852,20.7041118 C1.37704918,20.3171191 1.47540984,20.0268745 1.57377049,19.6398818 C1.47540984,20.0268745 1.37704918,20.3171191 1.27868852,20.7041118 L1.27868852,20.7041118 Z" id="Shape"></path>
                                <path d="M1.7704918,19.252889 C1.96721311,18.8658963 2.06557377,18.4789035 2.26229508,17.9951626 C2.06557377,18.3821553 1.86885246,18.8658963 1.7704918,19.252889 L1.7704918,19.252889 Z" id="Shape"></path>
                                <path d="M0.786885246,22.1553346 C0.885245902,21.86509 0.983606557,21.4780973 1.08196721,21.1878527 C0.983606557,21.4780973 0.885245902,21.86509 0.786885246,22.1553346 L0.786885246,22.1553346 Z" id="Shape"></path>
                                <path d="M0.491803279,23.7033056 C0.590163934,23.413061 0.590163934,23.0260683 0.68852459,22.7358237 C0.590163934,23.0260683 0.590163934,23.413061 0.491803279,23.7033056 L0.491803279,23.7033056 Z" id="Shape"></path>
                                <path d="M0.0983606557,26.8959957 C0.0983606557,26.509003 0.196721311,26.2187584 0.196721311,25.8317657 C0.0983606557,26.2187584 0.0983606557,26.6057511 0.0983606557,26.8959957 L0.0983606557,26.8959957 Z" id="Shape"></path>
                                <path d="M0.295081967,25.2512765 C0.295081967,24.961032 0.393442623,24.5740392 0.393442623,24.2837947 C0.295081967,24.5740392 0.295081967,24.961032 0.295081967,25.2512765 L0.295081967,25.2512765 Z" id="Shape"></path>
                                <path d="M7.86885246,9.28782585 C8.16393443,8.90083311 8.55737705,8.61058855 8.85245902,8.22359581 C8.55737705,8.61058855 8.26229508,8.90083311 7.86885246,9.28782585 L7.86885246,9.28782585 Z" id="Shape"></path>
                                <path d="M51.6393443,48.1805966 L51.6393443,48.1805966 C52.0327869,47.7936039 52.3278689,47.4066111 52.6229508,47.0196184 L52.6229508,47.0196184 C52.9180328,46.6326256 53.2131148,46.2456329 53.5081967,45.8586402 L53.5081967,45.8586402 C53.8032787,45.4716474 54.0983607,45.0846547 54.295082,44.6976619 C54.4918033,44.3106692 54.7868852,44.0204246 54.9836066,43.6334319 L54.9836066,43.6334319 C55.2786885,43.1496909 55.5737705,42.66595 55.7704918,42.1822091 L55.7704918,42.1822091 C56.557377,40.6342381 57.2459016,39.0862671 57.7377049,37.441548 L57.7377049,37.441548 C57.8360656,37.1513034 57.9344262,36.7643107 58.0327869,36.4740661 C58.2295082,35.893577 58.3278689,35.3130879 58.4262295,34.8293469 C58.4262295,34.7325988 58.4262295,34.6358506 58.5245902,34.5391024 C58.6229508,34.0553615 58.7213115,33.6683687 58.7213115,33.1846278 C58.7213115,32.9911314 58.7213115,32.797635 58.8196721,32.7008869 C58.9180328,32.3138941 58.9180328,31.8301532 58.9180328,31.4431604 L58.9180328,30.9594195 C58.9180328,30.3789304 59.0163934,29.7984413 59.0163934,29.2179522 L59.0163934,27.8634776 C59.0163934,27.573233 59.0163934,27.2829884 58.9180328,26.8959957 L58.9180328,26.509003 C58.9180328,26.1220102 58.8196721,25.7350175 58.8196721,25.3480247 L58.8196721,25.2512765 C58.7213115,24.8642838 58.7213115,24.3805429 58.6229508,23.9935501 L58.6229508,23.9935501 C58.4262295,23.0260683 58.2295082,21.9618382 57.9344262,21.0911045 L57.9344262,21.0911045 C57.147541,18.5756517 56.1639344,16.4471916 55.0819672,14.5122279 L55.0819672,14.5122279 C53.9016393,12.5772642 52.5245902,10.7390486 50.9508197,9.09432948 L50.852459,8.9975813 C50.3606557,8.51384037 49.7704918,7.93335125 49.2786885,7.44961032 L49.2786885,7.44961032 C48.6885246,6.96586939 48.0983607,6.48212846 47.5081967,5.99838753 C47.5081967,5.99838753 47.5081967,5.99838753 47.4098361,5.99838753 C46.8196721,5.61139479 46.2295082,5.12765386 45.6393443,4.74066111 C45.5409836,4.64391293 45.442623,4.64391293 45.3442623,4.54716474 C44.7540984,4.160172 44.1639344,3.77317925 43.4754098,3.48293469 C43.4754098,3.48293469 43.3770492,3.48293469 43.3770492,3.38618651 C42.7868852,3.09594195 42.0983607,2.80569739 41.5081967,2.51545284 C41.4098361,2.51545284 41.3114754,2.41870465 41.3114754,2.41870465 C40.6229508,2.12846009 40.0327869,1.93496372 39.3442623,1.64471916 C39.2459016,1.64471916 39.0491803,1.54797098 38.9508197,1.54797098 C38.2622951,1.3544746 37.5737705,1.16097823 36.8852459,0.96748186 L36.7868852,0.96748186 C36.0983607,0.773985488 35.4098361,0.677237302 34.7213115,0.580489116 C34.6229508,0.580489116 34.4262295,0.580489116 34.3278689,0.48374093 C33.6393443,0.386992744 32.9508197,0.290244558 32.2622951,0.193496372 L31.8688525,0.193496372 C30.9836066,0 30.295082,0 29.5081967,0 L27.9344262,0 L27.442623,0 C27.0491803,0 26.7540984,0 26.3606557,0.096748186 C26.1639344,0.096748186 25.9672131,0.096748186 25.7704918,0.193496372 C25.4754098,0.193496372 25.0819672,0.290244558 24.7868852,0.290244558 C24.5901639,0.290244558 24.3934426,0.386992744 24.1967213,0.386992744 C23.9016393,0.48374093 23.6065574,0.48374093 23.3114754,0.580489116 C23.1147541,0.580489116 22.9180328,0.677237302 22.7213115,0.677237302 C22.4262295,0.773985488 22.1311475,0.773985488 21.8360656,0.870733674 C21.6393443,0.870733674 21.442623,0.96748186 21.3442623,1.06423005 C21.0491803,1.16097823 20.7540984,1.25772642 20.4590164,1.3544746 C20.2622951,1.45122279 20.1639344,1.45122279 19.9672131,1.54797098 C19.6721311,1.64471916 19.3770492,1.74146735 19.0819672,1.83821553 C18.8852459,1.93496372 18.7868852,1.93496372 18.5901639,2.03171191 C18.295082,2.12846009 18,2.32195646 17.6065574,2.41870465 C17.5081967,2.51545284 17.3114754,2.51545284 17.2131148,2.61220102 C16.9180328,2.70894921 16.6229508,2.90244558 16.2295082,3.09594195 C16.1311475,3.19269014 16.0327869,3.19269014 15.8360656,3.28943832 C15.5409836,3.48293469 15.147541,3.57968288 14.852459,3.77317925 C14.852459,3.77317925 14.7540984,3.86992744 14.6557377,3.96667562 C14.3606557,4.160172 13.9672131,4.35366837 13.6721311,4.54716474 C13.5737705,4.64391293 13.4754098,4.64391293 13.3770492,4.74066111 C13.0819672,4.93415748 12.6885246,5.12765386 12.3934426,5.41789841 C12.295082,5.5146466 12.1967213,5.5146466 12.1967213,5.61139479 C11.9016393,5.80489116 11.5081967,6.09513572 11.2131148,6.38538027 C11.1147541,6.38538027 11.1147541,6.48212846 11.0163934,6.48212846 C10.7213115,6.77237302 10.3278689,7.06261758 10.0327869,7.25611395 L9.93442623,7.35286213 C9.63934426,7.64310669 9.24590164,7.93335125 8.95081967,8.22359581 C8.95081967,8.22359581 8.95081967,8.22359581 8.85245902,8.32034399 C8.55737705,8.61058855 8.26229508,8.90083311 7.86885246,9.28782585 C7.57377049,9.57807041 7.37704918,9.86831497 7.08196721,10.1585595 L7.08196721,10.1585595 C6.8852459,10.3520559 6.78688525,10.5455523 6.59016393,10.7390486 L6.59016393,10.7390486 C6.39344262,11.0292932 6.09836066,11.3195378 5.90163934,11.6097823 L5.90163934,11.6097823 C5.50819672,12.0935232 5.21311475,12.5772642 4.81967213,13.0610051 L4.81967213,13.0610051 C4.62295082,13.3512497 4.32786885,13.7382424 4.13114754,14.028487 L4.13114754,14.028487 C3.83606557,14.5122279 3.63934426,14.8992206 3.3442623,15.3829616 L3.3442623,15.3829616 C3.14754098,15.6732061 2.95081967,16.0601989 2.85245902,16.4471916 L2.85245902,16.4471916 C2.6557377,16.9309325 2.36065574,17.4146735 2.16393443,17.8984144 C2.16393443,17.9951626 2.06557377,17.9951626 2.06557377,18.0919108 C1.86885246,18.4789035 1.7704918,18.8658963 1.57377049,19.3496372 C1.47540984,19.4463854 1.47540984,19.6398818 1.47540984,19.7366299 C1.37704918,20.0268745 1.27868852,20.4138672 1.18032787,20.80086 C1.08196721,20.9943564 1.08196721,21.1878527 0.983606557,21.2846009 C0.885245902,21.5748455 0.786885246,21.9618382 0.68852459,22.2520828 C0.68852459,22.4455791 0.590163934,22.6390755 0.590163934,22.8325719 C0.491803279,23.1228164 0.491803279,23.5098092 0.393442623,23.8000537 C0.393442623,23.9935501 0.295081967,24.1870465 0.295081967,24.3805429 C0.196721311,24.6707874 0.196721311,25.0577802 0.196721311,25.3480247 C0.196721311,25.5415211 0.0983606557,25.7350175 0.0983606557,25.9285138 C0.0983606557,26.3155066 -8.32667268e-17,26.6057511 -8.32667268e-17,26.9927439 L-8.32667268e-17,27.4764848 L-8.32667268e-17,29.121204 C-8.32667268e-17,29.7984413 -8.32667268e-17,30.3789304 0.0983606557,31.0561677 L0.0983606557,31.5399086 C0.0983606557,32.1203977 0.196721311,32.7008869 0.295081967,33.281376 L0.295081967,33.4748723 C0.393442623,34.0553615 0.491803279,34.7325988 0.68852459,35.3130879 C0.68852459,35.5065843 0.786885246,35.6033324 0.786885246,35.7968288 C0.885245902,36.2805697 1.08196721,36.8610589 1.18032787,37.3447998 C1.18032787,37.441548 1.27868852,37.5382962 1.27868852,37.6350443 C1.47540984,38.2155335 1.67213115,38.7960226 1.86885246,39.3765117 C1.86885246,39.4732599 1.96721311,39.5700081 1.96721311,39.6667562 C2.16393443,40.1504972 2.36065574,40.7309863 2.6557377,41.2147272 C2.6557377,41.3114754 2.75409836,41.4082236 2.75409836,41.5049718 C3.04918033,42.0854609 3.3442623,42.66595 3.63934426,43.1496909 C3.63934426,43.2464391 3.73770492,43.2464391 3.73770492,43.3431873 C4.03278689,43.8269282 4.32786885,44.3106692 4.62295082,44.8911583 C4.62295082,44.9879065 4.72131148,44.9879065 4.72131148,45.0846547 C5.40983607,46.1488847 6.19672131,47.2131148 7.08196721,48.1805966 L7.18032787,48.2773448 C8.06557377,49.2448267 9.04918033,50.2123085 10.0327869,51.0830422 C10.0327869,51.0830422 10.1311475,51.0830422 10.1311475,51.1797904 C11.1147541,52.0505241 12.1967213,52.8245095 13.3770492,53.598495 L13.3770492,53.598495 C14.557377,54.3724805 15.7377049,54.9529696 17.0163934,55.5334587 L17.0163934,55.5334587 C17.3114754,55.7269551 17.704918,55.8237033 18,56.0171997 C18.6885246,56.3074442 19.3770492,56.5976888 20.1639344,56.7911852 C20.557377,56.8879334 20.9508197,56.9846815 21.3442623,57.1781779 L21.3442623,57.1781779 C22.6229508,57.5651707 23.9016393,57.758667 25.1803279,57.9521634 L25.3770492,57.9521634 C25.8688525,58.0489116 26.4590164,58.0489116 27.0491803,58.1456598 L27.442623,58.1456598 C28.0327869,58.1456598 28.7213115,58.242408 29.3114754,58.242408 L30.8852459,58.242408 L31.3770492,58.242408 C31.7704918,58.242408 32.0655738,58.1456598 32.4590164,58.1456598 C32.6557377,58.1456598 32.852459,58.1456598 33.0491803,58.0489116 C33.3442623,58.0489116 33.7377049,57.9521634 34.0327869,57.9521634 C34.2295082,57.9521634 34.4262295,57.8554152 34.6229508,57.8554152 C34.9180328,57.758667 35.2131148,57.758667 35.6065574,57.6619188 C35.8032787,57.6619188 36,57.5651707 36.1967213,57.5651707 C36.4918033,57.4684225 36.7868852,57.3716743 37.1803279,57.3716743 C37.3770492,57.3716743 37.5737705,57.2749261 37.6721311,57.1781779 C37.9672131,57.0814297 38.2622951,56.9846815 38.6557377,56.8879334 C38.852459,56.7911852 38.9508197,56.7911852 39.147541,56.694437 C39.442623,56.5976888 39.8360656,56.5009406 40.1311475,56.3074442 C40.2295082,56.210696 40.4262295,56.210696 40.5245902,56.1139479 C40.9180328,56.0171997 41.2131148,55.8237033 41.5081967,55.7269551 C41.6065574,55.6302069 41.704918,55.6302069 41.8032787,55.5334587 C42.1967213,55.3399624 42.5901639,55.146466 42.8852459,54.9529696 C42.9836066,54.9529696 43.0819672,54.8562214 43.0819672,54.8562214 C43.4754098,54.6627251 43.9672131,54.3724805 44.3606557,54.1789841 L44.3606557,54.1789841 C47.2131148,52.4375168 49.5737705,50.5025531 51.6393443,48.1805966 L51.6393443,48.1805966 Z M58.0327869,29.0244558 C58.0327869,31.4431604 57.7377049,33.7651169 57.147541,35.9903252 C56.4590164,35.7968288 55.7704918,35.7000806 55.1803279,35.7000806 C51.442623,35.7000806 49.0819672,39.4732599 48.3934426,39.7635044 C48.1967213,39.8602526 48.0983607,39.8602526 47.9016393,39.8602526 C47.1147541,39.8602526 45.9344262,39.2797635 45.147541,38.6025262 C44.4590164,38.0220371 44.6557377,36.2805697 44.852459,35.3130879 C44.852459,35.2163397 44.9508197,35.2163397 44.9508197,35.1195915 C45.442623,30.7659231 48.9836066,22.5423273 51.0491803,20.6073636 L52.6229508,20.9943564 C52.6229508,20.9943564 53.1147541,22.0585864 53.704918,22.348831 L54,22.348831 C54.5901639,22.348831 55.2786885,21.7683418 55.2786885,21.7683418 C55.2786885,21.7683418 55.5737705,22.9293201 56.2622951,23.2195646 C56.3606557,23.2195646 56.4590164,23.3163128 56.557377,23.3163128 C56.852459,23.3163128 57.147541,23.2195646 57.3442623,23.0260683 C57.8360656,24.8642838 58.0327869,26.8959957 58.0327869,29.0244558 L58.0327869,29.0244558 Z M29.5081967,0.96748186 C42.6885246,0.96748186 53.8032787,9.86831497 57.0491803,21.86509 L56.852459,22.0585864 C56.7540984,22.1553346 56.557377,22.2520828 56.557377,22.2520828 C56.4590164,22.2520828 56.2622951,21.86509 56.1639344,21.5748455 L55.7704918,19.9301263 L54.4918033,21.0911045 C54.295082,21.1878527 54.0983607,21.3813491 54,21.3813491 C53.9016393,21.2846009 53.6065574,20.8976082 53.5081967,20.6073636 L53.3114754,20.1236227 L52.8196721,20.0268745 L48.8852459,18.9626445 L48.1967213,18.7691481 L47.8032787,19.3496372 C47.8032787,19.3496372 47.704918,19.4463854 47.6065574,19.4463854 C47.4098361,19.4463854 47.2131148,19.0593926 47.1147541,18.7691481 L46.7213115,17.4146735 L45.7377049,18.3821553 C45.5409836,18.4789035 45.2459016,18.6723999 45.0491803,18.6723999 C44.9508197,18.6723999 44.6557377,18.3821553 44.557377,18.188659 L44.0655738,17.2211771 L43.1803279,17.8016662 C43.0819672,17.8984144 42.7868852,17.9951626 42.6885246,17.9951626 C42.5901639,17.8984144 42.3934426,17.6081698 42.295082,17.4146735 L42.0983607,17.0276807 L41.704918,16.9309325 C40.8196721,16.7374362 21.0491803,11.6097823 15.6393443,10.4488041 C13.6721311,10.0618113 11.4098361,9.6748186 9.24590164,9.38457404 C14.2622951,4.25692018 21.5409836,0.96748186 29.5081967,0.96748186 L29.5081967,0.96748186 Z M45.442623,21.3813491 C45.2459016,21.86509 44.7540984,22.1553346 44.2622951,22.1553346 C44.1639344,22.1553346 43.9672131,22.1553346 43.8688525,22.0585864 C43.1803279,21.86509 42.8852459,21.0911045 43.0819672,20.5106154 C43.2786885,20.0268745 43.7704918,19.7366299 44.2622951,19.7366299 C44.3606557,19.7366299 44.557377,19.7366299 44.6557377,19.8333781 C45.3442623,20.0268745 45.7377049,20.7041118 45.442623,21.3813491 L45.442623,21.3813491 Z M8.26229508,10.2553077 C10.6229508,10.5455523 13.1803279,10.932545 15.2459016,11.3195378 C16.1311475,11.5130341 17.4098361,11.8032787 18.9836066,12.1902714 C16.7213115,12.2870196 14.2622951,12.5772642 13.7704918,12.6740124 L7.67213115,11.0292932 C7.86885246,10.7390486 8.06557377,10.5455523 8.26229508,10.2553077 L8.26229508,10.2553077 Z M6.98360656,11.8032787 L13.3770492,13.544746 C13.7704918,14.028487 15.2459016,15.3829616 19.3770492,17.4146735 C23.6065574,19.4463854 33.8360656,22.348831 37.2786885,23.3163128 C37.8688525,23.5098092 38.1639344,23.6065574 38.2622951,23.6065574 L38.4590164,23.6065574 C38.6557377,23.6065574 38.852459,23.5098092 38.9508197,23.3163128 C39.0491803,23.0260683 38.9508197,22.8325719 38.6557377,22.7358237 C38.557377,22.7358237 38.1639344,22.6390755 37.5737705,22.4455791 C34.2295082,21.4780973 24,18.5756517 19.8688525,16.5439398 C17.1147541,15.1894652 15.5409836,14.1252352 14.852459,13.544746 C17.2131148,13.3512497 21.3442623,13.0610051 22.6229508,13.3512497 C22.8196721,13.3512497 22.9180328,13.3512497 23.0163934,13.2545015 C30.9836066,15.1894652 41.3114754,17.8984144 41.3114754,17.8984144 C41.3114754,17.8984144 41.704918,18.7691481 42.295082,18.9626445 L42.5901639,18.9626445 C43.0819672,18.9626445 43.6721311,18.5756517 43.6721311,18.5756517 C43.6721311,18.5756517 43.7704918,18.6723999 43.7704918,18.7691481 C43.0819672,18.9626445 42.3934426,19.4463854 42.1967213,20.1236227 C42,20.7041118 42,21.2846009 42.295082,21.7683418 C42.5901639,22.2520828 42.9836066,22.7358237 43.5737705,22.9293201 C43.7704918,23.0260683 44.0655738,23.0260683 44.3606557,23.0260683 C45.2459016,23.0260683 46.1311475,22.4455791 46.4262295,21.5748455 C46.6229508,20.9943564 46.6229508,20.4138672 46.3278689,19.9301263 C46.2295082,19.7366299 46.0327869,19.4463854 45.8360656,19.3496372 C46.1311475,19.252889 46.2295082,19.0593926 46.2295082,19.0593926 C46.2295082,19.0593926 46.6229508,20.1236227 47.4098361,20.3171191 L47.704918,20.3171191 C48.295082,20.3171191 48.6885246,19.7366299 48.6885246,19.7366299 L49.9672131,20.1236227 C47.8032787,22.6390755 44.7540984,29.7016931 44.0655738,34.1521096 C43.5737705,33.9586133 42.8852459,33.7651169 42.0983607,33.5716205 L42.0983607,33.4748723 C42.0983607,33.281376 42.4918033,31.2496641 41.8032787,30.3789304 C41.5081967,29.8951895 41.1147541,29.8951895 40.9180328,29.8951895 C40.7213115,29.8951895 40.5245902,29.9919377 40.4262295,30.0886858 C40.3278689,30.185434 40.3278689,30.0886858 40.2295082,29.9919377 C40.1311475,29.7984413 39.9344262,29.7016931 39.7377049,29.7016931 C39.442623,29.7016931 39.147541,29.8951895 38.9508197,30.0886858 C38.852459,29.8951895 38.557377,29.6049449 38.1639344,29.3147003 C37.3770492,28.7342112 36.3934426,28.9277076 35.9016393,29.2179522 C35.8032787,29.0244558 35.6065574,28.8309594 35.4098361,28.7342112 C35.2131148,28.5407149 34.9180328,28.4439667 34.7213115,28.5407149 C34.6229508,28.5407149 34.5245902,28.637463 34.4262295,28.637463 C34.3278689,28.5407149 34.2295082,28.4439667 34.0327869,28.3472185 C33.6393443,28.1537221 33.3442623,28.1537221 33.0491803,28.2504703 C32.852459,28.0569739 32.557377,27.7667294 32.2622951,27.4764848 C31.5737705,26.9927439 30.5901639,27.1862403 30,27.4764848 C30,27.3797366 29.9016393,27.3797366 29.9016393,27.2829884 C29.8032787,27.1862403 29.704918,26.9927439 29.704918,26.8959957 C29.4098361,26.509003 28.8196721,26.6057511 28.3278689,26.7024993 L27.9344262,26.4122548 C27.7377049,26.2187584 27.442623,26.1220102 27.147541,26.2187584 C26.6557377,26.3155066 26.3606557,26.7992475 26.1639344,27.0894921 L18.295082,24.7675356 C10.5245902,21.86509 6.98360656,17.2211771 5.40983607,14.028487 C5.90163934,13.2545015 6.39344262,12.480516 6.98360656,11.8032787 L6.98360656,11.8032787 Z M4.81967213,15.092717 C5.01639344,15.4797098 5.21311475,15.8667025 5.50819672,16.2536952 C7.37704918,19.1561408 11.0163934,23.1228164 18,25.7350175 L26.7540984,28.3472185 L26.9508197,27.9602257 C27.0491803,27.6699812 27.3442623,27.2829884 27.442623,27.1862403 L28.2295082,27.8634776 L28.5245902,27.7667294 C28.7213115,27.6699812 28.9180328,27.6699812 29.1147541,27.6699812 C29.1147541,27.7667294 29.2131148,27.7667294 29.2131148,27.8634776 C29.4098361,28.2504703 29.6065574,28.5407149 29.9016393,28.637463 L30.1967213,28.637463 L30.3934426,28.5407149 C30.5901639,28.4439667 31.3770492,28.0569739 31.8688525,28.3472185 C32.4590164,28.7342112 32.7540984,29.2179522 32.7540984,29.2179522 L33.147541,29.8951895 L33.6393443,29.2179522 C33.7377049,29.121204 33.7377049,29.121204 33.8360656,29.2179522 C34.0327869,29.3147003 34.0327869,29.4114485 34.1311475,29.5081967 C34.2295082,29.6049449 34.3278689,29.8951895 34.7213115,29.8951895 C35.0163934,29.8951895 35.1147541,29.7016931 35.2131148,29.6049449 C35.5081967,29.8951895 35.6065574,30.0886858 35.6065574,30.0886858 L35.8032787,30.669175 L36.295082,30.2821822 C36.295082,30.2821822 37.2786885,29.6049449 37.8688525,30.0886858 C38.2622951,30.3789304 38.4590164,30.669175 38.557377,30.8626713 C38.852459,31.4431604 39.147541,31.3464123 39.442623,31.2496641 C39.6393443,31.1529159 39.7377049,31.0561677 39.9344262,30.8626713 C40.1311475,31.0561677 40.2295082,31.3464123 40.2295082,31.3464123 L40.7213115,32.1203977 L41.1147541,31.2496641 C41.1147541,31.1529159 41.2131148,31.0561677 41.2131148,31.0561677 L41.2131148,31.0561677 C41.5081967,31.4431604 41.5081967,32.7008869 41.3114754,33.3781242 C34.9180328,31.4431604 22.5245902,27.7667294 19.5737705,26.8959957 C15.442623,25.7350175 12.6885246,23.9935501 12.6885246,23.9935501 C8.45901639,21.6715937 5.90163934,18.8658963 4.2295082,16.2536952 C4.32786885,15.9634507 4.52459016,15.4797098 4.81967213,15.092717 L4.81967213,15.092717 Z M0.983606557,29.0244558 C0.983606557,24.8642838 1.86885246,20.8976082 3.54098361,17.4146735 C5.31147541,20.0268745 7.86885246,22.7358237 12,24.961032 C12.295082,25.1545284 15.0491803,26.7992475 19.0819672,27.9602257 C22.6229508,29.0244558 39.7377049,34.0553615 43.7704918,35.3130879 C43.5737705,36.6675625 43.4754098,38.505778 44.4590164,39.3765117 C45.3442623,40.053749 46.7213115,40.8277345 47.8032787,40.8277345 C48.1967213,40.8277345 48.4918033,40.7309863 48.7868852,40.6342381 C49.0819672,40.4407417 49.3770492,40.1504972 49.8688525,39.6667562 C50.9508197,38.505778 52.7213115,36.5708143 55.1803279,36.5708143 C55.6721311,36.5708143 56.2622951,36.6675625 56.852459,36.8610589 L56.852459,36.8610589 C56.1639344,39.2797635 55.0819672,41.60172 53.704918,43.7301801 C52.3278689,43.9236764 50.6557377,44.213921 48.5901639,44.5041655 C44.0655738,45.1814028 42.3934426,45.4716474 38.852459,46.2456329 L35.9016393,46.826122 C33.0491803,47.4066111 31.5737705,48.4708412 30.295082,49.438323 C29.4098361,50.1155603 28.7213115,50.5993013 27.7377049,50.8895458 C24.0983607,41.6984682 16.2295082,37.6350443 15.9344262,37.441548 C15.7377049,37.3447998 15.442623,37.441548 15.2459016,37.6350443 C15.147541,37.8285407 15.2459016,38.1187853 15.442623,38.3122816 C15.5409836,38.3122816 23.1147541,42.2789573 26.6557377,51.0830422 L26.2622951,51.0830422 C24.1967213,51.1797904 20.7540984,52.6310132 17.9016393,54.5659769 C8.06557377,50.4058049 0.983606557,40.5374899 0.983606557,29.0244558 L0.983606557,29.0244558 Z M21.3442623,55.9204515 C20.6557377,55.7269551 19.8688525,55.4367106 19.1803279,55.146466 C21.7377049,53.5017468 24.6885246,52.3407686 26.4590164,52.1472722 C28.5245902,52.0505241 29.704918,51.1797904 30.8852459,50.2123085 C32.0655738,49.3415748 33.442623,48.2773448 36.0983607,47.6968557 L39.0491803,47.1163666 C42.5901639,46.3423811 44.2622951,46.0521365 48.6885246,45.3748992 C50.3606557,45.1814028 51.7377049,44.8911583 53.0163934,44.7944101 C52.4262295,45.6651438 51.7377049,46.4391293 51.147541,47.2131148 C49.4754098,47.5033593 47.704918,47.7936039 45.8360656,47.9871002 C42.5901639,48.4708412 39.147541,48.8578339 36.8852459,49.6318194 C35.1147541,50.2123085 33.442623,51.0830422 31.9672131,51.8570277 C29.6065574,53.0180059 27.2459016,54.2757323 24.0983607,54.8562214 C23.0163934,55.0497178 22.1311475,55.4367106 21.3442623,55.9204515 L21.3442623,55.9204515 Z M29.5081967,57.0814297 C27.147541,57.0814297 24.8852459,56.7911852 22.7213115,56.3074442 C23.2131148,56.1139479 23.6065574,55.9204515 24.1967213,55.8237033 C27.5409836,55.2432142 30,53.9854878 32.3606557,52.8245095 C33.9344262,52.0505241 35.4098361,51.2765386 37.1803279,50.6960494 C39.3442623,50.0188121 42.6885246,49.5350712 45.9344262,49.1480785 C47.3114754,48.9545821 48.6885246,48.7610857 50.0655738,48.5675894 C44.852459,53.7919914 37.5737705,57.0814297 29.5081967,57.0814297 L29.5081967,57.0814297 Z" id="Shape" fill="#B88310"></path>
                                <path d="M52.0327869,27.8634776 C51.6393443,27.7667294 51.2459016,27.6699812 50.9508197,27.6699812 C49.5737705,27.6699812 48.295082,28.5407149 47.8032787,29.7984413 C47.5081967,30.5724268 47.5081967,31.5399086 47.9016393,32.3138941 C48.295082,33.0878796 48.9836066,33.6683687 49.7704918,33.9586133 C50.1639344,34.0553615 50.557377,34.1521096 50.852459,34.1521096 C52.2295082,34.1521096 53.5081967,33.281376 54,32.0236496 C54.295082,31.2496641 54.295082,30.2821822 53.9016393,29.5081967 C53.5081967,28.7342112 52.8196721,28.1537221 52.0327869,27.8634776 L52.0327869,27.8634776 Z M53.0163934,31.6366568 C52.7213115,32.6041387 51.7377049,33.1846278 50.852459,33.1846278 C50.557377,33.1846278 50.3606557,33.1846278 50.0655738,33.0878796 C48.8852459,32.7008869 48.1967213,31.3464123 48.6885246,30.185434 C48.9836066,29.2179522 49.9672131,28.637463 50.852459,28.637463 C51.147541,28.637463 51.3442623,28.637463 51.6393443,28.7342112 C52.8196721,29.121204 53.5081967,30.4756786 53.0163934,31.6366568 L53.0163934,31.6366568 Z" id="Shape" fill="#B88310"></path>
                                <ellipse id="Oval" fill="#B88310" transform="translate(50.843843, 30.885775) rotate(-70.050180) translate(-50.843843, -30.885775) " cx="50.8438426" cy="30.8857748" rx="0.688530594" ry="0.677243207"></ellipse>
                                <path d="M21.6393443,46.4391293 C16.5245902,47.6968557 14.9508197,43.5366837 13.0819672,38.3122816 C12.6885246,37.3447998 12.295082,36.2805697 11.9016393,35.2163397 C13.8688525,35.3130879 18.9836066,35.5065843 21.5409836,36.3773179 C23.4098361,37.0545552 24.6885246,38.9895189 25.1803279,40.5374899 C25.5737705,41.7952163 25.5737705,42.9561946 25.0819672,43.4399355 C24.8852459,43.6334319 24.9836066,43.9236764 25.1803279,44.1171728 C25.3770492,44.3106692 25.6721311,44.213921 25.8688525,44.0204246 C26.557377,43.1496909 26.557377,41.7952163 26.0655738,40.2472454 C25.4754098,38.505778 24.0983607,36.1838216 21.8360656,35.4098361 C18.4918033,34.2488578 11.4098361,34.1521096 11.1147541,34.1521096 L10.3278689,34.1521096 L10.6229508,34.8293469 C11.1147541,36.0870734 11.6065574,37.3447998 12.0983607,38.505778 C13.7704918,43.1496909 15.442623,47.5033593 19.8688525,47.5033593 C20.4590164,47.5033593 21.147541,47.4066111 21.8360656,47.2131148 C22.1311475,47.1163666 22.2295082,46.9228702 22.2295082,46.6326256 C22.1311475,46.5358775 21.9344262,46.3423811 21.6393443,46.4391293 L21.6393443,46.4391293 Z" id="Shape" fill="#B88310"></path>
                            </g>
                        </g>
                    </g>
                </g>
            </g>
        </g>
    </g>
</svg>