<?xml version="1.0" encoding="UTF-8"?>
<svg width="60px" height="60px" viewBox="0 0 60 60" version="1.1" xmlns="http://www.w3.org/2000/svg" xmlns:xlink="http://www.w3.org/1999/xlink">
    <!-- Generator: sketchtool 40.2 (33826) - http://www.bohemiancoding.com/sketch -->
    <title>C65F6AAD-6EB0-413E-8471-5BE44EACBD53</title>
    <desc>Created with sketchtool.</desc>
    <defs></defs>
    <g id="Empire_dev_v.1.0" stroke="none" stroke-width="1" fill="none" fill-rule="evenodd">
        <g id="index_1200" transform="translate(-297.000000, -660.000000)" fill="#B88310">
            <g id="Category" transform="translate(55.000000, 660.000000)">
                <g id="Group-2" transform="translate(213.000000, 0.000000)">
                    <g id="ek_icon-02" transform="translate(29.000000, 0.000000)">
                        <g id="Слой_1">
                            <g id="Group" transform="translate(5.000000, 4.000000)">
                                <path d="M43.7,42.6 L11.5,42.6 C6.5,42.6 3,41.4 1.5,39.3 C0.5,37.9 0.4,36.2 1.1,34.3 C3.2,28.7 7.9,30.1 11.6,31.3 C12.3,31.5 13,31.7 13.7,31.9 C17.9,32.9 34,33.3 38.7,31.4 C43.6,29.4 45.5,30.3 47.9,33.1 C49.2,34.6 49.4,37.2 48.3,39.5 C47.4,41.4 45.7,42.6 43.7,42.6 L43.7,42.6 Z M6.4,31.1 C4.5,31.1 2.9,31.9 2,34.6 C1.6,35.7 1.3,37.3 2.3,38.7 C3.2,40 5.6,41.6 11.5,41.6 L43.7,41.6 C45.3,41.6 46.6,40.6 47.4,38.9 C48.3,37 48.1,34.8 47.1,33.6 C45,31.2 43.6,30.3 39,32.2 C34.1,34.2 17.8,33.9 13.4,32.8 C12.7,32.6 12,32.4 11.2,32.2 C9.6,31.6 7.9,31.1 6.4,31.1 L6.4,31.1 Z" id="Shape"></path>
                                <path d="M7,38.3 C5.9,38.3 5,37.4 5,36.3 C5,35.2 5.9,34.3 7,34.3 C8.1,34.3 9,35.2 9,36.3 C9,37.4 8.1,38.3 7,38.3 L7,38.3 Z M7,35.4 C6.5,35.4 6,35.8 6,36.4 C6,37 6.4,37.4 7,37.4 C7.6,37.4 8,37 8,36.4 C8,35.8 7.6,35.4 7,35.4 L7,35.4 Z" id="Shape"></path>
                                <path d="M41.9,38.3 C40.8,38.3 39.9,37.4 39.9,36.3 C39.9,35.2 40.8,34.3 41.9,34.3 C43,34.3 43.9,35.2 43.9,36.3 C43.9,37.4 43,38.3 41.9,38.3 L41.9,38.3 Z M41.9,35.4 C41.4,35.4 40.9,35.8 40.9,36.4 C40.9,37 41.3,37.4 41.9,37.4 C42.5,37.4 42.9,37 42.9,36.4 C42.9,35.8 42.4,35.4 41.9,35.4 L41.9,35.4 Z" id="Shape"></path>
                                <path d="M36.3,31.3 L36.1,30.8 C36,30.7 34.8,27.7 32,16.1 C29.7,6.5 30.5,2.4 31.1,0.8 C31.2,0.6 31.3,0.5 31.5,0.4 C31.9,0.3 32,0.3 34.9,3.3 C35.6,4 36.3,4.7 37.2,5.6 C40.6,8.9 46.8,28.8 47.1,29.7 L47.5,30.9 L46.4,30.3 C46.4,30.3 44.5,29.3 41.8,29.5 C39,29.7 37,31 36.9,31 L36.3,31.3 L36.3,31.3 Z M31.8,1.7 C31.3,3.3 30.8,7.3 32.9,15.9 C35,24.8 36.3,28.6 36.8,29.9 C37.6,29.5 39.4,28.7 41.6,28.5 C43.4,28.4 44.8,28.7 45.7,29 C44.4,24.9 39.2,9.1 36.4,6.3 C35.5,5.4 34.8,4.7 34.1,4 C33.2,3 32.3,2.1 31.8,1.7 L31.8,1.7 Z" id="Shape"></path>
                                <path d="M40.6,19.2 L37.4,9.2 C37.4,9.2 37.2,12.4 37.8,14.6 C38.4,16.8 40.6,19.2 40.6,19.2 L40.6,19.2 Z" id="Shape"></path>
                                <path d="M12.1,9.7 C15.3,9.7 17.2,13 17.2,14.4 C17.2,15.8 17.1,17.2 16.3,17.2 L16.1,17.2 C15.4,17 13.6,16 12.6,16 C12.3,16 12.1,16.1 11.9,16.3 C11.3,17.3 7.1,25.9 10.3,26.9 C10.6,27 10.8,27 11,27 C13.5,27 13.5,22.6 14,22.3 C14.1,22.2 14.2,22.2 14.3,22.2 C14.6,22.2 14.8,22.6 14.7,23.5 C14.5,24.8 12.7,29.5 12.7,29.5 C12.7,29.5 10.7,28.7 8.5,28.3 C7.5,28.1 6.5,28.1 5.8,28.1 C5,28.1 4.5,28.2 4.5,28.2 C4.5,28.2 8.8,9.7 12.1,9.7 L12.1,9.7 L12.1,9.7 Z M12.1,8.7 L12.1,8.7 C10.7,8.7 8.9,9.9 6.1,18.7 C4.6,23.3 3.6,28 3.5,28.1 L3.2,29.5 L4.6,29.4 L5.8,29.4 C6.7,29.4 7.6,29.5 8.3,29.6 C10.3,30 12.3,30.7 12.3,30.7 L13.2,31.1 L13.5,30.2 C13.7,29.7 15.3,25.3 15.5,24 C15.6,23.4 15.6,22.6 15.1,22 C14.8,21.7 14.5,21.5 14.1,21.5 C13.8,21.5 13.6,21.6 13.3,21.7 C12.8,22 12.6,22.5 12.4,23.4 C12.4,24.5 11.9,26 11,26 C10.9,26 10.7,26 10.6,25.9 C10.5,25.9 10.3,25.8 10.3,25.5 C9.6,23.7 11.9,18.4 12.7,16.9 C13.2,16.9 14.1,17.3 14.6,17.6 C15.1,17.8 15.5,18 15.9,18.1 C16,18.1 16.2,18.2 16.3,18.2 C18.2,18.2 18.2,15.7 18.2,14.4 C18.2,13.2 17.4,11.6 16.3,10.5 C15.1,9.3 13.7,8.7 12.1,8.7 L12.1,8.7 L12.1,8.7 Z" id="Shape"></path>
                            </g>
                            <path d="M30,1 C46,1 59,14 59,30 C59,46 46,59 30,59 C14,59 1,46 1,30 C1,14 14,1 30,1 L30,1 Z M30,0 C13.4,0 0,13.4 0,30 C0,46.6 13.4,60 30,60 C46.6,60 60,46.6 60,30 C60,13.4 46.6,0 30,0 L30,0 L30,0 Z" id="Shape"></path>
                        </g>
                    </g>
                </g>
            </g>
        </g>
    </g>
</svg>