<?xml version="1.0" encoding="UTF-8"?>
<svg width="60px" height="60px" viewBox="0 0 60 60" version="1.1" xmlns="http://www.w3.org/2000/svg" xmlns:xlink="http://www.w3.org/1999/xlink">
    <!-- Generator: sketchtool 40.2 (33826) - http://www.bohemiancoding.com/sketch -->
    <title>570D32D5-B794-490A-A03D-4F8318E17EC8</title>
    <desc>Created with sketchtool.</desc>
    <defs></defs>
    <g id="Empire_dev_v.1.0" stroke="none" stroke-width="1" fill="none" fill-rule="evenodd">
        <g id="index_1200" transform="translate(-87.000000, -660.000000)">
            <g id="Category" transform="translate(55.000000, 660.000000)">
                <g id="Group">
                    <g id="ek_icon-01" transform="translate(32.000000, 0.000000)">
                        <g id="Слой_1">
                            <g id="Group">
                                <path d="M1.27868852,34 C1.7704918,37.8 2.95081967,41.4 4.72131148,44.6 L4.72131148,44.5 C2.95081967,41.3 1.7704918,37.8 1.27868852,34 L1.27868852,34 Z" id="Shape"></path>
                                <path d="M1.86885246,22.6 C1.96721311,22.2 2.06557377,21.9 2.16393443,21.5 C2.06557377,21.8 1.96721311,22.2 1.86885246,22.6 L1.86885246,22.6 Z" id="Shape"></path>
                                <path d="M0.983606557,28.5 L0.983606557,27.9 C1.08196721,28.1 0.983606557,28.3 0.983606557,28.5 L0.983606557,28.5 Z" id="Shape"></path>
                                <path d="M6.19672131,47 C7.08196721,48.3 8.06557377,49.5 9.14754098,50.7 C8.16393443,49.6 7.27868852,48.4 6.49180328,47 L6.19672131,47 L6.19672131,47 Z" id="Shape"></path>
                                <path d="M9.44262295,9 C7.47540984,11 5.80327869,13.3 4.42622951,15.9 C5.80327869,13.3 7.47540984,11 9.44262295,9 L9.44262295,9 L9.44262295,9 Z" id="Shape"></path>
                                <path d="M5.60655738,46.1 C5.60655738,46.1 5.60655738,46.2 5.70491803,46.2 L5.60655738,46.1 L5.60655738,46.1 L5.60655738,46.1 Z" id="Shape"></path>
                                <path d="M1.27868852,25.5 C1.27868852,25.2 1.37704918,24.9 1.47540984,24.6 C1.37704918,24.8 1.37704918,25.2 1.27868852,25.5 L1.27868852,25.5 Z" id="Shape"></path>
                                <path d="M16.2295082,56.3 L16.2295082,56.3 C16.7213115,56.6 17.1147541,56.8 17.6065574,57 L17.6065574,57 C17.2131148,56.8 16.7213115,56.5 16.2295082,56.3 L16.2295082,56.3 Z" id="Shape"></path>
                                <path d="M2.26229508,21.2 C2.36065574,20.8 2.55737705,20.4 2.6557377,20 C2.55737705,20.4 2.36065574,20.8 2.26229508,21.2 L2.26229508,21.2 Z" id="Shape"></path>
                                <path d="M1.18032787,27 C1.18032787,26.7 1.27868852,26.5 1.27868852,26.2 C1.18032787,26.4 1.18032787,26.7 1.18032787,27 L1.18032787,27 Z" id="Shape"></path>
                                <path d="M10.5245902,52.1 C12.0983607,53.6 13.8688525,54.9 15.7377049,56 L15.7377049,55.7 C13.7704918,54.6 12.0983607,53.5 10.5245902,52.1 L10.5245902,52.1 Z" id="Shape"></path>
                                <path d="M1.57377049,24 C1.67213115,23.7 1.7704918,23.3 1.7704918,23 C1.7704918,23.3 1.67213115,23.7 1.57377049,24 L1.57377049,24 Z" id="Shape"></path>
                                <path d="M23.5081967,0.9 C23.9016393,0.8 24.3934426,0.7 24.7868852,0.6 C24.295082,0.7 23.9016393,0.8 23.5081967,0.9 L23.5081967,0.9 Z" id="Shape"></path>
                                <path d="M28.3278689,0.1 C28.5245902,0.1 28.8196721,0.1 29.0163934,0 C28.7213115,0.1 28.5245902,0.1 28.3278689,0.1 L28.3278689,0.1 Z" id="Shape"></path>
                                <path d="M22.0327869,1.2 C22.4262295,1.1 22.9180328,0.9 23.3114754,0.8 C22.9180328,1 22.5245902,1.1 22.0327869,1.2 L22.0327869,1.2 Z" id="Shape"></path>
                                <path d="M24.9836066,0.5 C25.3770492,0.4 25.7704918,0.4 26.1639344,0.3 C25.7704918,0.4 25.3770492,0.5 24.9836066,0.5 L24.9836066,0.5 Z" id="Shape"></path>
                                <path d="M2.75409836,19.8 C2.85245902,19.4 3.04918033,19 3.24590164,18.6 C3.04918033,19 2.85245902,19.4 2.75409836,19.8 L2.75409836,19.8 Z" id="Shape"></path>
                                <path d="M26.557377,0.3 C26.852459,0.3 27.2459016,0.2 27.5409836,0.2 C27.2459016,0.2 26.852459,0.2 26.557377,0.3 L26.557377,0.3 Z" id="Shape"></path>
                                <path d="M3.24590164,18.4 C3.44262295,18 3.63934426,17.6 3.83606557,17.2 C3.63934426,17.6 3.44262295,18 3.24590164,18.4 L3.24590164,18.4 Z" id="Shape"></path>
                                <path d="M19.4754098,2.2 C20.3606557,1.8 21.2459016,1.5 22.1311475,1.3 C21.147541,1.5 20.2622951,1.8 19.4754098,2.2 L19.4754098,2.2 Z" id="Shape"></path>
                                <path d="M18.4918033,2.6 C15.442623,4 12.5901639,5.9 10.2295082,8.3 C12.5901639,5.9 15.442623,4 18.4918033,2.6 L18.4918033,2.6 L18.4918033,2.6 Z" id="Shape"></path>
                                <path d="M3.83606557,17.1 C4.03278689,16.7 4.2295082,16.3 4.42622951,15.9 C4.2295082,16.3 4.03278689,16.7 3.83606557,17.1 L3.83606557,17.1 Z" id="Shape"></path>
                                <path d="M18,17.2 C19.4754098,15.8 23.2131148,12.4 25.0819672,10.8 C24.0983607,9.5 21.8360656,6.6 19.1803279,3.4 C16.0327869,4.8 13.2786885,6.7 10.8196721,9 C12.3934426,11 13.0819672,12.6 13.2786885,13.2 C14.0655738,13.6 16.7213115,14.9 18,17.2 L18,17.2 Z" id="Shape"></path>
                                <path d="M8.36065574,48.3 L8.36065574,47.4 L7.67213115,47.4 C7.86885246,47.6 8.06557377,47.9 8.36065574,48.3 L8.36065574,48.3 Z" id="Shape"></path>
                                <path d="M15.7377049,35.5 L15.7377049,34 L16.7213115,34 L16.7213115,35.5 C21.6393443,35.7 26.6557377,40 26.9508197,46 L28.5245902,46 L28.5245902,47 L26.9508197,47 C26.7540984,52 24.1967213,55.2 20.4590164,57 C23.6065574,58.2 26.9508197,59 30.4918033,59 C46.2295082,59 59.0163934,46 59.0163934,30 C59.0163934,14 46.2295082,1 30.4918033,1 C26.852459,1 23.3114754,1.7 20.0655738,3 C23.6065574,7.3 26.3606557,10.9 26.3606557,11 C26.557377,11.2 44.0655738,31.5 45.147541,32.7 C46.2295082,33.9 52.0327869,42.7 52.2295082,43.1 L52.5245902,43.6 L52.1311475,43.9 C51.9344262,44 49.1803279,45.3 45.3442623,45.3 C44.2622951,45.3 43.1803279,45.2 41.9016393,44.9 C36.7868852,43.8 21.442623,24.7 19.0819672,21.8 C18.3934426,22.3 17.1147541,23.2 16.4262295,23.5 C16.4262295,23.5 13.4754098,24.7 12.4918033,24.2 C12.295082,24.1 12.0983607,23.9 12.0983607,23.7 C11.9016393,23.1 12.5901639,22.7 13.7704918,22 C15.9344262,20.8 18,19.5 17.4098361,18.1 C16.2295082,15.5 12.7868852,14.1 12.7868852,14.1 L12.4918033,14 L12.3934426,13.8 C12.3934426,13.8 11.9016393,12.1 10.1311475,9.8 C5.1147541,15 2.06557377,22.1 2.06557377,30 C2.06557377,34.8 3.3442623,39.3 5.31147541,43.3 C6.78688525,38.9 10.8196721,35.7 15.7377049,35.5 L15.7377049,35.5 Z" id="Shape"></path>
                                <path d="M19.3770492,57.7 L19.2786885,57.7 C22.7213115,59.2 26.4590164,60 30.4918033,60 L30.5901639,60 C26.557377,60 22.8196721,59.2 19.3770492,57.7 L19.3770492,57.7 Z" id="Shape"></path>
                                <path d="M15.2459016,54.5 L15.2459016,54.4 L15.0491803,54.4 C15.147541,54.4 15.2459016,54.5 15.2459016,54.5 L15.2459016,54.5 Z" id="Shape"></path>
                                <path d="M25.6721311,11.6 C23.704918,13.3 19.6721311,17 18.4918033,18.2 C18.8852459,20.3 16.0327869,21.9 14.3606557,22.9 C14.1639344,23 13.9672131,23.1 13.7704918,23.3 C14.4590164,23.2 15.442623,22.9 16.2295082,22.6 C16.8196721,22.4 18,21.6 18.6885246,21.1 L18.7868852,20.8 C18.8852459,20.6 18.9836066,20.3 26.557377,13.6 C26.7540984,13.4 26.9508197,13.3 27.0491803,13.2 C26.1639344,12.2 25.6721311,11.6 25.6721311,11.6 L25.6721311,11.6 L25.6721311,11.6 Z" id="Shape"></path>
                                <path d="M25.9672131,47 L23.6065574,47 L23.6065574,49 L22.6229508,49 L22.6229508,47 L19.6721311,47 L19.6721311,49 L18.6885246,49 L18.6885246,47 L18.6885246,46 L18.6885246,45 L19.6721311,45 L19.6721311,46 L22.6229508,46 L22.6229508,45 L23.6065574,45 L23.6065574,46 L25.9672131,46 C25.6721311,41 21.6393443,36.7 16.7213115,36.5 L16.7213115,39 L17.704918,39 L17.704918,40 L16.7213115,40 L16.7213115,43 L17.704918,43 L17.704918,44 L16.7213115,44 L15.7377049,44 L13.7704918,44 L13.7704918,43 L15.7377049,43 L15.7377049,40 L13.7704918,40 L13.7704918,39 L15.7377049,39 L15.7377049,36.5 C10.8196721,36.7 7.08196721,39.9 6,44.4 C6.39344262,45 6.49180328,46 6.8852459,46 L7.86885246,46 L7.86885246,45 L8.85245902,45 L8.85245902,46 L11.8032787,46 L11.8032787,45 L12.7868852,45 L12.7868852,46 L12.7868852,47 L12.7868852,49 L11.8032787,49 L11.8032787,47 L8.85245902,47 L8.85245902,49 L8.6557377,49 C10.2295082,51 11.8032787,52.2 13.7704918,53.7 L13.7704918,53 L15.7377049,53 L15.7377049,51 L13.7704918,51 L13.7704918,50 L15.7377049,50 L15.7377049,49 L16.7213115,49 L16.7213115,50 L17.704918,50 L17.704918,51 L16.7213115,51 L16.7213115,53 L17.704918,53 L17.704918,54 L16.7213115,54 L16.7213115,55.1 C16.7213115,55.6 18.3934426,56 19.3770492,56.4 C23.2131148,55.1 25.7704918,52 25.9672131,47 L25.9672131,47 Z M15.7377049,47.6 C15.3442623,47.6 14.9508197,47.3 14.9508197,46.8 C14.9508197,46.3 15.2459016,46 15.7377049,46 C16.2295082,46 16.5245902,46.3 16.5245902,46.8 C16.5245902,47.3 16.1311475,47.6 15.7377049,47.6 L15.7377049,47.6 Z" id="Shape"></path>
                                <path d="M1.08196721,31.8 C0.983606557,31.2 0.983606557,30.6 0.983606557,30 C0.983606557,30.6 0.983606557,31.2 1.08196721,31.8 L1.08196721,31.8 Z" id="Shape"></path>
                                <path d="M1.18032787,33.7 C1.08196721,33.2 1.08196721,32.7 1.08196721,32.3 C1.08196721,32.8 1.18032787,33.3 1.18032787,33.7 L1.18032787,33.7 Z" id="Shape"></path>
                                <path d="M27.5409836,13.8 C27.442623,13.9 27.3442623,14 27.0491803,14.2 C21.7377049,18.8 20.0655738,20.4 19.5737705,20.9 L19.5737705,20.9 C20.4590164,20.2 22.6229508,18.6 23.5081967,18.4 C24.3934426,18.2 25.6721311,19.7 30.6885246,25.8 C32.557377,28.1 34.4262295,30.4 36.295082,32.5 C41.0163934,37.9 45.9344262,39.4 48.5901639,39.2 C46.9180328,36.7 45.0491803,33.9 44.4590164,33.3 C43.5737705,32.4 32.1639344,19.1 27.5409836,13.8 L27.5409836,13.8 Z M42.4918033,34.8 C42.4918033,34.8 41.5081967,34.7 40.5245902,33.6 C39.5409836,32.5 29.704918,20.7 28.5245902,19.5 C27.442623,18.2 27.6393443,16.9 27.6393443,16.9 C27.6393443,16.9 28.8196721,17.4 29.704918,18.4 C30.5901639,19.4 40.4262295,31.1 41.6065574,32.5 C42.8852459,33.8 42.4918033,34.8 42.4918033,34.8 L42.4918033,34.8 Z" id="Shape"></path>
                                <path d="M35.5081967,33.2 C33.7377049,31.1 31.7704918,28.8 29.9016393,26.5 C27.3442623,23.3 24.3934426,19.8 23.704918,19.4 C23.0163934,19.6 21.442623,20.8 20.2622951,21.7 C26.557377,29.5 38.1639344,43 42.0983607,43.9 C46.2295082,44.8 49.7704918,43.7 51.147541,43.1 C50.7540984,42.5 49.9672131,41.4 49.1803279,40.1 C48.8852459,40.2 48.4918033,40.2 48.0983607,40.2 C44.852459,40.3 39.9344262,38.2 35.5081967,33.2 L35.5081967,33.2 Z" id="Shape"></path>
                                <path d="M9.93442623,51.6 C9.83606557,51.5 9.63934426,51.3 9.54098361,51.2 C9.73770492,51.3 9.83606557,51.4 9.93442623,51.6 L9.93442623,51.6 Z" id="Shape"></path>
                                <path d="M29.8032787,18.4 C28.9180328,17.4 27.7377049,16.9 27.7377049,16.9 C27.7377049,16.9 27.442623,18.2 28.6229508,19.5 C29.704918,20.8 39.6393443,32.5 40.6229508,33.6 C41.6065574,34.7 42.5901639,34.8 42.5901639,34.8 C42.5901639,34.8 42.8852459,33.8 41.704918,32.4 C40.5245902,31.1 30.5901639,19.4 29.8032787,18.4 L29.8032787,18.4 Z" id="Shape" fill="#B88310"></path>
                                <ellipse id="Oval" fill="#B88310" cx="15.7377049" cy="46.8" rx="0.786885246" ry="0.8"></ellipse>
                                <path d="M30.5901639,60 C46.8196721,60 60,46.5 60,30 C60,13.4 46.8196721,0 30.4918033,0 L29.0163934,0 C28.8196721,0 28.5245902,0 28.3278689,0.1 C28.1311475,0.1 27.8360656,0.1 27.6393443,0.2 C27.3442623,0.2 26.9508197,0.3 26.6557377,0.3 C26.557377,0.3 26.3606557,0.3 26.2622951,0.4 C25.8688525,0.5 25.4754098,0.5 25.0819672,0.6 L24.8852459,0.6 C24.4918033,0.7 24,0.8 23.6065574,0.9 L23.5081967,0.9 C23.1147541,1 22.6229508,1.1 22.2295082,1.3 L22.2295082,1.3 C21.3442623,1.6 20.4590164,1.9 19.5737705,2.2 C19.2786885,2.3 18.9836066,2.5 18.5901639,2.6 L18.5901639,2.6 C15.5409836,4 12.6885246,5.9 10.3278689,8.3 C9.93442623,8.5 9.73770492,8.7 9.44262295,9 L9.44262295,9 C7.47540984,11 5.80327869,13.3 4.42622951,15.9 L4.42622951,15.9 C4.2295082,16.3 4.03278689,16.7 3.83606557,17.1 L3.83606557,17.2 C3.63934426,17.6 3.44262295,18 3.24590164,18.4 C3.24590164,18.4 3.24590164,18.5 3.14754098,18.5 C2.95081967,18.9 2.85245902,19.3 2.6557377,19.7 C2.6557377,19.8 2.6557377,19.8 2.55737705,19.9 C2.45901639,20.3 2.26229508,20.7 2.16393443,21.1 C2.16393443,21.2 2.06557377,21.3 2.06557377,21.4 C1.96721311,21.8 1.86885246,22.1 1.7704918,22.5 C1.7704918,22.6 1.67213115,22.8 1.67213115,22.9 C1.57377049,23.2 1.47540984,23.6 1.47540984,23.9 C1.47540984,24.1 1.37704918,24.3 1.37704918,24.4 C1.27868852,24.7 1.27868852,25 1.18032787,25.3 C1.18032787,25.5 1.08196721,25.8 1.08196721,26 C1.08196721,26.3 0.983606557,26.5 0.983606557,26.8 C0.983606557,27.1 0.983606557,27.4 0.885245902,27.7 L0.885245902,28.3 L0.885245902,29.8 C0.885245902,30.4 0.885245902,31 0.983606557,31.6 L0.983606557,32.1 C0.983606557,32.6 1.08196721,33.1 1.08196721,33.5 L1.08196721,33.8 C1.57377049,37.6 2.85245902,41.1 4.62295082,44.3 L4.62295082,44.4 C4.91803279,44.9 5.21311475,45.4 5.50819672,45.8 L5.50819672,45.8 C5.50819672,45.8 5.50819672,45.9 5.60655738,45.9 C5.80327869,46.2 6,46.4 6.09836066,46.7 L6.29508197,46.7 C7.08196721,48.1 7.96721311,49.3 8.95081967,50.4 C9.14754098,50.6 9.24590164,50.7 9.44262295,50.9 C9.54098361,51 9.73770492,51.2 9.83606557,51.3 C10.0327869,51.5 10.2295082,51.7 10.4262295,51.8 C12,53.2 13.6721311,54.4 15.6393443,55.4 L15.6393443,56 C15.8360656,56.1 15.9344262,56.2 16.1311475,56.3 L16.1311475,56.3 C16.6229508,56.6 17.0163934,56.8 17.5081967,57 L17.5081967,57 C18,57.3 18.4918033,57.5 19.0819672,57.7 L19.1803279,57.7 C22.8196721,59.2 26.557377,60 30.5901639,60 L30.5901639,60 Z M19.1803279,3.4 C21.8360656,6.6 24,9.5 25.0819672,10.8 C23.2131148,12.4 19.4754098,15.8 18,17.2 C16.7213115,14.9 14.0655738,13.6 13.2786885,13.2 C13.0819672,12.6 12.3934426,11 10.8196721,9 C13.1803279,6.7 16.0327869,4.8 19.1803279,3.4 L19.1803279,3.4 Z M36.295082,32.5 C34.5245902,30.4 32.557377,28.1 30.6885246,25.8 C25.6721311,19.7 24.3934426,18.2 23.5081967,18.4 C22.6229508,18.6 20.557377,20.2 19.5737705,20.9 L19.5737705,20.9 C20.0655738,20.4 21.7377049,18.8 27.0491803,14.2 C27.2459016,14 27.442623,13.9 27.5409836,13.8 C32.1639344,19.1 43.5737705,32.4 44.4590164,33.4 C44.9508197,34 46.9180328,36.8 48.5901639,39.3 C45.9344262,39.5 41.0163934,37.9 36.295082,32.5 L36.295082,32.5 Z M49.1803279,40.2 C50.0655738,41.5 50.7540984,42.6 51.147541,43.2 C49.8688525,43.7 46.2295082,44.9 42.0983607,44 C38.1639344,43.1 26.4590164,29.6 20.2622951,21.8 C21.442623,20.9 23.0163934,19.7 23.704918,19.5 C24.4918033,19.8 27.3442623,23.4 29.9016393,26.6 C31.7704918,28.9 33.6393443,31.2 35.5081967,33.3 C39.9344262,38.3 44.7540984,40.4 48,40.4 C48.4918033,40.3 48.7868852,40.3 49.1803279,40.2 L49.1803279,40.2 Z M26.4590164,13.4 C18.7868852,20 18.6885246,20.4 18.6885246,20.6 L18.4918033,21 C17.8032787,21.5 16.6229508,22.3 16.0327869,22.5 C15.2459016,22.8 14.2622951,23.1 13.5737705,23.2 C13.7704918,23.1 13.9672131,23 14.1639344,22.8 C15.9344262,21.8 18.7868852,20.2 18.295082,18.1 C19.5737705,17 23.6065574,13.2 25.4754098,11.5 L25.4754098,11.5 C25.4754098,11.5 25.9672131,12.1 26.7540984,12.9 C26.7540984,13.1 26.6557377,13.3 26.4590164,13.4 L26.4590164,13.4 Z M5.40983607,43.3 C3.3442623,39.3 2.16393443,34.8 2.16393443,30 C2.16393443,22.1 5.21311475,15 10.2295082,9.8 C12,12.1 12.4918033,13.8 12.4918033,13.8 L12.5901639,14 L12.7868852,14.1 C12.7868852,14.1 16.2295082,15.5 17.4098361,18.1 C18,19.5 15.9344262,20.8 13.7704918,22 C12.4918033,22.7 11.9016393,23.1 12.0983607,23.7 C12.1967213,23.9 12.295082,24.1 12.4918033,24.2 C13.4754098,24.7 16.4262295,23.5 16.4262295,23.5 C17.1147541,23.2 18.3934426,22.3 19.0819672,21.8 C21.442623,24.8 36.7868852,43.8 41.9016393,44.9 C43.0819672,45.2 44.2622951,45.3 45.3442623,45.3 C49.1803279,45.3 52.0327869,43.9 52.1311475,43.9 L52.6229508,43.7 L52.3278689,43.2 C52.0327869,42.8 46.3278689,34 45.2459016,32.8 C44.1639344,31.5 26.557377,11.2 26.3606557,11 C26.3606557,10.9 23.6065574,7.3 20.0655738,3 C23.3114754,1.7 26.7540984,1 30.4918033,1 C46.2295082,1 59.0163934,14 59.0163934,30 C59.0163934,46 46.2295082,59 30.4918033,59 C26.9508197,59 23.6065574,58.2 20.4590164,57 C24.1967213,55.3 26.7540984,52 26.9508197,47 L28.5245902,47 L28.5245902,46 L26.9508197,46 C26.6557377,40 21.6393443,35.7 16.7213115,35.5 L16.7213115,34 L15.7377049,34 L15.7377049,35.5 C10.8196721,35.7 6.78688525,38.9 5.40983607,43.3 L5.40983607,43.3 Z M8.36065574,48.3 C8.16393443,48 7.86885246,47.7 7.67213115,47.4 L8.36065574,47.4 L8.36065574,48.3 L8.36065574,48.3 Z M15.2459016,54.5 C15.147541,54.5 15.147541,54.4 15.0491803,54.4 L15.2459016,54.4 L15.2459016,54.5 L15.2459016,54.5 Z M16.7213115,55.1 L16.7213115,54 L17.704918,54 L17.704918,53 L16.7213115,53 L16.7213115,51 L17.704918,51 L17.704918,50 L16.7213115,50 L16.7213115,49 L15.7377049,49 L15.7377049,50 L13.7704918,50 L13.7704918,51 L15.7377049,51 L15.7377049,53 L13.7704918,53 L13.7704918,53.7 C11.8032787,52.2 10.2295082,51 8.6557377,49 L8.85245902,49 L8.85245902,47 L11.8032787,47 L11.8032787,49 L12.7868852,49 L12.7868852,47 L12.7868852,46 L12.7868852,45 L11.8032787,45 L11.8032787,46 L8.85245902,46 L8.85245902,45 L7.86885246,45 L7.86885246,46 L6.8852459,46 C6.49180328,46 6.39344262,45 6,44.3 C6.98360656,39.8 10.8196721,36.6 15.7377049,36.4 L15.7377049,39 L13.7704918,39 L13.7704918,40 L15.7377049,40 L15.7377049,43 L13.7704918,43 L13.7704918,44 L15.7377049,44 L16.7213115,44 L17.704918,44 L17.704918,43 L16.7213115,43 L16.7213115,40 L17.704918,40 L17.704918,39 L16.7213115,39 L16.7213115,36.5 C21.6393443,36.8 25.6721311,41 25.9672131,46 L23.6065574,46 L23.6065574,45 L22.6229508,45 L22.6229508,46 L19.6721311,46 L19.6721311,45 L18.6885246,45 L18.6885246,46 L18.6885246,47 L18.6885246,49 L19.6721311,49 L19.6721311,47 L22.6229508,47 L22.6229508,49 L23.6065574,49 L23.6065574,47 L25.9672131,47 C25.7704918,52 23.2131148,55.1 19.3770492,56.4 C18.3934426,56 16.7213115,55.7 16.7213115,55.1 L16.7213115,55.1 Z" id="Shape" fill="#B88310"></path>
                            </g>
                        </g>
                    </g>
                </g>
            </g>
        </g>
    </g>
</svg>