<?xml version="1.0" encoding="UTF-8"?>
<svg width="60px" height="60px" viewBox="0 0 60 60" version="1.1" xmlns="http://www.w3.org/2000/svg" xmlns:xlink="http://www.w3.org/1999/xlink">
    <!-- Generator: sketchtool 40.2 (33826) - http://www.bohemiancoding.com/sketch -->
    <title>3BFFDEF5-7B0B-4268-ABE0-E14F60449B0C</title>
    <desc>Created with sketchtool.</desc>
    <defs></defs>
    <g id="Empire_dev_v.1.0" stroke="none" stroke-width="1" fill="none" fill-rule="evenodd">
        <g id="index_1200" transform="translate(-979.000000, -660.000000)">
            <g id="Category" transform="translate(55.000000, 660.000000)">
                <g id="Group-4-Copy" transform="translate(895.000000, 0.000000)">
                    <g id="ek_icon-05" transform="translate(29.000000, 0.000000)">
                        <g id="Слой_1">
                            <circle id="Oval" cx="29.5081967" cy="29.5081967" r="29.5081967"></circle>
                            <g id="Group">
                                <path d="M20.9508197,50.3606557 C20.6557377,49.1803279 19.4754098,45.0491803 16.9180328,43.6721311 C16.3278689,43.3770492 15.6393443,43.2786885 15.0491803,43.4754098 C13.3770492,44.0655738 12.295082,46.3278689 12.0983607,46.5245902 C11.5081967,48.1967213 11.6065574,49.8688525 12.295082,50.9508197 C12.7868852,51.7377049 13.5737705,52.2295082 14.557377,52.2295082 C17.0163934,52.4262295 19.9672131,50.852459 20.9508197,50.3606557 L20.9508197,50.3606557 Z M13.9672131,49.3770492 C13.5737705,48.7868852 13.4754098,48 13.7704918,47.1147541 L13.7704918,47.1147541 C13.8688525,47.0163934 14.3606557,45.9344262 15.2459016,45.6393443 C15.6393443,45.5409836 16.0327869,45.5409836 16.4262295,45.7377049 C17.8032787,46.4262295 18.1967213,48.5901639 18.295082,48.7868852 L18.3934426,49.0819672 L18.0983607,49.2786885 C17.9016393,49.3770492 16.6229508,50.1639344 15.442623,50.1639344 L15.2459016,50.1639344 C14.7540984,50.1639344 14.2622951,49.8688525 13.9672131,49.3770492 L13.9672131,49.3770492 Z" id="Shape"></path>
                                <path d="M6.68852459,48.1967213 C7.18032787,48.7868852 7.57377049,49.2786885 8.06557377,49.7704918 C7.57377049,49.2786885 7.18032787,48.7868852 6.68852459,48.1967213 L6.68852459,48.1967213 L6.68852459,48.1967213 Z" id="Shape"></path>
                                <path d="M45.147541,54.4918033 C44.0655738,55.1803279 42.9836066,55.7704918 41.8032787,56.2622951 C42.9836066,55.7704918 44.0655738,55.1803279 45.147541,54.4918033 L45.147541,54.4918033 Z" id="Shape"></path>
                                <path d="M4.62295082,45.442623 C5.01639344,46.0327869 5.40983607,46.6229508 5.80327869,47.2131148 L5.80327869,47.2131148 C5.40983607,46.5245902 5.01639344,46.0327869 4.62295082,45.442623 L4.62295082,45.442623 Z" id="Shape"></path>
                                <path d="M17.3114754,48.5901639 C17.1147541,47.9016393 16.7213115,46.9180328 16.0327869,46.5245902 C15.8360656,46.4262295 15.7377049,46.4262295 15.6393443,46.4262295 C15.2459016,46.5245902 14.852459,47.2131148 14.7540984,47.4098361 C14.557377,47.9016393 14.557377,48.3934426 14.852459,48.7868852 C14.9508197,48.9836066 15.147541,49.0819672 15.442623,49.1803279 C15.9344262,49.2786885 16.8196721,48.8852459 17.3114754,48.5901639 L17.3114754,48.5901639 Z" id="Shape"></path>
                                <path d="M17.9016393,40.7213115 C16.8196721,40.1311475 15.7377049,40.0327869 14.6557377,40.4262295 C11.8032787,41.4098361 9.83606557,45.3442623 9.73770492,45.6393443 C9.24590164,46.9180328 9.04918033,48.295082 9.14754098,49.4754098 C10.0327869,50.4590164 11.0163934,51.3442623 12.0983607,52.1311475 C11.9016393,51.9344262 11.8032787,51.8360656 11.704918,51.6393443 C10.8196721,50.2622951 10.7213115,48.295082 11.4098361,46.3278689 L11.4098361,46.3278689 C11.5081967,46.2295082 12.7868852,43.3770492 14.9508197,42.6885246 C15.8360656,42.3934426 16.7213115,42.4918033 17.6065574,42.9836066 C20.9508197,44.7540984 22.1311475,50.4590164 22.2295082,50.7540984 L22.3278689,51.0491803 L22.0327869,51.2459016 C21.8360656,51.3442623 18.295082,53.5081967 15.3442623,53.5081967 L14.9508197,53.5081967 C14.3606557,53.5081967 13.8688525,53.3114754 13.4754098,53.1147541 C14.6557377,54 15.9344262,54.6885246 17.3114754,55.3770492 C20.557377,54.6885246 24,52.8196721 24.9836066,52.2295082 C24.1967213,50.3606557 22.3278689,42.9836066 17.9016393,40.7213115 L17.9016393,40.7213115 Z" id="Shape"></path>
                                <path d="M49.8688525,50.852459 C49.3770492,51.2459016 48.9836066,51.7377049 48.4918033,52.1311475 C48.9836066,51.7377049 49.4754098,51.2459016 49.8688525,50.852459 L49.8688525,50.852459 Z" id="Shape"></path>
                                <path d="M49.6721311,38.557377 L49.6721311,38.557377 L50.0655738,38.557377 C50.4590164,38.4590164 51.0491803,38.3606557 51.5409836,38.3606557 C52.7213115,38.3606557 53.8032787,38.852459 54.6885246,39.8360656 C54.9836066,40.1311475 55.2786885,40.5245902 55.4754098,40.8196721 L55.5737705,40.9180328 C56.0655738,39.7377049 56.557377,38.4590164 56.9508197,37.0819672 C53.9016393,34.7213115 51.442623,32.852459 51.0491803,32.557377 C50.6557377,33.9344262 49.8688525,37.4754098 49.6721311,38.557377 L49.6721311,38.557377 Z M52.1311475,35.8032787 C52.3278689,35.6065574 52.5245902,35.5081967 52.7213115,35.5081967 C52.9180328,35.5081967 53.0163934,35.6065574 53.2131148,35.704918 C53.5081967,36 53.6065574,36.4918033 53.3114754,36.7868852 C53.1147541,36.9836066 52.9180328,37.0819672 52.7213115,37.0819672 C52.5245902,37.0819672 52.4262295,36.9836066 52.2295082,36.8852459 C51.9344262,36.5901639 51.8360656,36.0983607 52.1311475,35.8032787 L52.1311475,35.8032787 Z" id="Shape"></path>
                                <path d="M46.8196721,53.4098361 C46.3278689,53.704918 45.8360656,54.0983607 45.3442623,54.3934426 C45.8360656,54.0983607 46.3278689,53.704918 46.8196721,53.4098361 L46.8196721,53.4098361 Z" id="Shape"></path>
                                <path d="M48.4918033,52.1311475 C48,52.5245902 47.5081967,52.9180328 46.9180328,53.3114754 C47.4098361,52.9180328 48,52.5245902 48.4918033,52.1311475 L48.4918033,52.1311475 Z" id="Shape"></path>
                                <path d="M41.5081967,56.4590164 C41.0163934,56.6557377 40.4262295,56.9508197 39.9344262,57.147541 C40.4262295,56.9508197 40.9180328,56.7540984 41.5081967,56.4590164 L41.5081967,56.4590164 Z" id="Shape"></path>
                                <path d="M57.8360656,37.7704918 C57.442623,39.147541 56.9508197,40.5245902 56.3606557,41.8032787 C56.9508197,40.4262295 57.442623,39.147541 57.8360656,37.7704918 L57.8360656,37.7704918 Z" id="Shape"></path>
                                <path d="M33.5409836,58.7213115 C33.0491803,58.8196721 32.557377,58.8196721 31.9672131,58.9180328 C32.4590164,58.8196721 32.9508197,58.8196721 33.5409836,58.7213115 L33.5409836,58.7213115 Z" id="Shape"></path>
                                <path d="M31.3770492,58.9180328 C30.7868852,59.0163934 30.1967213,59.0163934 29.5081967,59.0163934 C30.1967213,59.0163934 30.7868852,59.0163934 31.3770492,58.9180328 L31.3770492,58.9180328 Z" id="Shape"></path>
                                <path d="M27.0491803,58.9180328 C26.4590164,58.8196721 25.8688525,58.8196721 25.1803279,58.7213115 C25.8688525,58.8196721 26.4590164,58.8196721 27.0491803,58.9180328 L27.0491803,58.9180328 Z" id="Shape"></path>
                                <path d="M29.5081967,59.0163934 C28.8196721,59.0163934 28.2295082,59.0163934 27.5409836,58.9180328 C28.2295082,59.0163934 28.8196721,59.0163934 29.5081967,59.0163934 L29.5081967,59.0163934 Z" id="Shape"></path>
                                <path d="M37.5737705,57.9344262 C37.0819672,58.0327869 36.5901639,58.2295082 36.0983607,58.3278689 C36.5901639,58.1311475 37.0819672,58.0327869 37.5737705,57.9344262 L37.5737705,57.9344262 Z" id="Shape"></path>
                                <path d="M39.7377049,57.147541 C39.147541,57.3442623 38.557377,57.5409836 37.9672131,57.7377049 C38.557377,57.6393443 39.147541,57.442623 39.7377049,57.147541 L39.7377049,57.147541 Z" id="Shape"></path>
                                <path d="M35.704918,58.3278689 C35.1147541,58.4262295 34.5245902,58.5245902 33.8360656,58.6229508 C34.4262295,58.6229508 35.1147541,58.5245902 35.704918,58.3278689 L35.704918,58.3278689 Z" id="Shape"></path>
                                <path d="M23.0163934,58.3278689 C22.3278689,58.1311475 21.7377049,58.0327869 21.0491803,57.8360656 C21.7377049,58.0327869 22.4262295,58.1311475 23.0163934,58.3278689 L23.0163934,58.3278689 Z" id="Shape"></path>
                                <path d="M52.7213115,47.8032787 C54,46.2295082 55.0819672,44.557377 55.9672131,42.7868852 L55.9672131,42.7868852 C54.9836066,44.4590164 53.9016393,46.2295082 52.7213115,47.8032787 L52.7213115,47.8032787 Z" id="Shape"></path>
                                <path d="M49.9672131,50.7540984 C50.9508197,49.8688525 51.7377049,48.8852459 52.6229508,47.9016393 C51.8360656,48.8852459 50.9508197,49.7704918 49.9672131,50.7540984 L49.9672131,50.7540984 Z" id="Shape"></path>
                                <path d="M0.393442623,34.2295082 C0.295081967,33.5409836 0.196721311,32.852459 0.0983606557,32.1639344 C0.196721311,32.852459 0.295081967,33.5409836 0.393442623,34.2295082 L0.393442623,34.2295082 Z" id="Shape"></path>
                                <path d="M0.0983606557,31.6721311 C0,30.9836066 0,30.295082 0,29.5081967 C0,30.295082 0,30.9836066 0.0983606557,31.6721311 L0.0983606557,31.6721311 Z" id="Shape"></path>
                                <path d="M42.0983607,26.1639344 C41.6065574,25.7704918 30,16.1311475 26.852459,11.6065574 C25.4754098,9.63934426 24.295082,9.44262295 23.9016393,9.44262295 C23.6065574,9.44262295 23.3114754,9.54098361 23.1147541,9.73770492 C22.1311475,10.8196721 19.8688525,13.2786885 17.704918,15.6393443 C16.8196721,16.6229508 15.7377049,17.6065574 14.7540984,18.4918033 C16.6229508,20.3606557 22.9180328,26.3606557 25.9672131,29.1147541 C34.9180328,37.2786885 40.5245902,41.0163934 42.6885246,42.3934426 C42.8852459,42.4918033 43.0819672,42.5901639 43.1803279,42.6885246 C45.2459016,40.6229508 47.1147541,38.6557377 47.3114754,38.2622951 C47.5081967,37.8688525 48.295082,34.6229508 48.9836066,31.5737705 C47.8032787,30.8852459 45.0491803,28.6229508 42.0983607,26.1639344 L42.0983607,26.1639344 Z M25.6721311,13.6721311 C25.2786885,14.1639344 24.7868852,14.3606557 24.1967213,14.3606557 C23.8032787,14.3606557 23.4098361,14.2622951 23.0163934,13.9672131 C22.2295082,13.3770492 22.0327869,12.1967213 22.7213115,11.3114754 C23.1147541,10.8196721 23.6065574,10.6229508 24.1967213,10.6229508 C24.5901639,10.6229508 24.9836066,10.7213115 25.3770492,11.0163934 C26.1639344,11.6065574 26.3606557,12.7868852 25.6721311,13.6721311 L25.6721311,13.6721311 Z" id="Shape"></path>
                                <path d="M0.885245902,36.4918033 C0.68852459,35.9016393 0.590163934,35.2131148 0.491803279,34.5245902 C0.590163934,35.2131148 0.68852459,35.9016393 0.885245902,36.4918033 L0.885245902,36.4918033 Z" id="Shape"></path>
                                <path d="M55.1803279,41.9016393 C54.7868852,41.4098361 54.3934426,40.9180328 54,40.4262295 C53.2131148,39.5409836 52.3278689,39.2459016 51.6393443,39.2459016 C51.147541,39.2459016 50.7540984,39.3442623 50.3606557,39.442623 C50.1639344,39.442623 49.9672131,39.5409836 49.8688525,39.5409836 C49.1803279,39.5409836 48.6885246,39.147541 48.7868852,38.4590164 C48.8852459,37.6721311 50.1639344,31.6721311 50.557377,31.4754098 C50.6557377,31.3770492 50.7540984,31.3770492 50.852459,31.3770492 C51.2459016,31.3770492 51.6393443,31.6721311 51.6393443,31.6721311 C51.6393443,31.6721311 54.0983607,33.5409836 57.2459016,36 C57.7377049,33.9344262 58.0327869,31.6721311 58.0327869,29.4098361 C58.0327869,13.7704918 45.2459016,0.983606557 29.5081967,0.983606557 C13.7704918,0.983606557 0.983606557,13.7704918 0.983606557,29.5081967 C0.983606557,35.6065574 2.85245902,41.2131148 6.09836066,45.8360656 C6.19672131,45.3442623 6.39344262,44.852459 6.49180328,44.3606557 L6.49180328,44.3606557 C6.59016393,44.0655738 9.3442623,38.2622951 13.7704918,36.6885246 C15.5409836,36.0983607 17.3114754,36.295082 19.0819672,37.1803279 C26.2622951,41.0163934 28.7213115,53.2131148 28.8196721,53.704918 L28.9180328,54 L28.6229508,54.1967213 C28.4262295,54.295082 25.8688525,55.8688525 22.6229508,57.2459016 C24.7868852,57.7377049 27.0491803,58.0327869 29.4098361,58.0327869 C40.8196721,58.0327869 50.557377,51.442623 55.1803279,41.9016393 L55.1803279,41.9016393 Z M41.8032787,45.5409836 C41.8032787,45.5409836 37.9672131,43.6721311 31.5737705,38.2622951 C25.7704918,33.3442623 22.2295082,30.1967213 22.2295082,30.1967213 C13.3770492,22.1311475 11.4098361,19.9672131 11.4098361,19.9672131 C11.4098361,19.9672131 14.6557377,17.4098361 17.0163934,14.9508197 C19.3770492,12.4918033 21.5409836,10.1311475 22.4262295,9.04918033 C22.7213115,8.6557377 23.3114754,8.36065574 24,8.36065574 C25.0819672,8.36065574 26.4590164,9.04918033 27.7377049,10.9180328 C30.7868852,15.3442623 42.7868852,25.2786885 42.7868852,25.2786885 C46.6229508,28.4262295 50.0655738,31.1803279 50.0655738,31.1803279 C50.0655738,31.1803279 48.5901639,37.9672131 48.1967213,38.6557377 C47.8032787,39.6393443 41.8032787,45.5409836 41.8032787,45.5409836 L41.8032787,45.5409836 Z" id="Shape"></path>
                                <path d="M1.47540984,38.7540984 C1.27868852,38.0655738 1.08196721,37.4754098 0.885245902,36.7868852 C1.08196721,37.4754098 1.27868852,38.0655738 1.47540984,38.7540984 L1.47540984,38.7540984 Z" id="Shape"></path>
                                <path d="M25.1803279,58.7213115 C24.4918033,58.6229508 23.8032787,58.5245902 23.1147541,58.3278689 C23.8032787,58.4262295 24.4918033,58.6229508 25.1803279,58.7213115 L25.1803279,58.7213115 Z" id="Shape"></path>
                                <path d="M58.7213115,33.442623 C58.6229508,33.8360656 58.6229508,34.3278689 58.5245902,34.7213115 C58.6229508,34.3278689 58.7213115,33.8360656 58.7213115,33.442623 L58.7213115,33.442623 Z" id="Shape"></path>
                                <path d="M59.0163934,29.5081967 C59.0163934,30.0983607 59.0163934,30.6885246 58.9180328,31.1803279 C59.0163934,30.6885246 59.0163934,30.0983607 59.0163934,29.5081967 L59.0163934,29.5081967 Z" id="Shape"></path>
                                <path d="M58.9180328,31.6721311 C58.9180328,32.0655738 58.8196721,32.4590164 58.8196721,32.9508197 C58.8196721,32.557377 58.9180328,32.1639344 58.9180328,31.6721311 L58.9180328,31.6721311 Z" id="Shape"></path>
                                <path d="M13.5737705,54.295082 C12,53.3114754 10.6229508,52.2295082 9.24590164,50.9508197 C10.6229508,52.2295082 12,53.3114754 13.5737705,54.295082 L13.5737705,54.295082 Z" id="Shape"></path>
                                <path d="M58.5245902,35.1147541 C58.4262295,35.704918 58.3278689,36.1967213 58.1311475,36.6885246 C58.2295082,36.1967213 58.3278689,35.6065574 58.5245902,35.1147541 L58.5245902,35.1147541 Z" id="Shape"></path>
                                <path d="M18.0983607,56.7540984 C17.6065574,56.557377 17.2131148,56.3606557 16.8196721,56.1639344 C17.2131148,56.3606557 17.704918,56.557377 18.0983607,56.7540984 L18.0983607,56.7540984 Z" id="Shape"></path>
                                <path d="M19.4754098,57.2459016 C18.9836066,57.0491803 18.5901639,56.9508197 18.0983607,56.7540984 C18.5901639,56.9508197 18.9836066,57.147541 19.4754098,57.2459016 L19.4754098,57.2459016 Z" id="Shape"></path>
                                <path d="M24.1967213,11.6065574 C23.9016393,11.6065574 23.704918,11.704918 23.5081967,11.9016393 C23.4098361,12.0983607 23.3114754,12.295082 23.3114754,12.5901639 C23.3114754,12.7868852 23.4098361,12.9836066 23.6065574,13.1803279 C23.8032787,13.3770492 24,13.3770492 24.0983607,13.3770492 C24.3934426,13.3770492 24.5901639,13.2786885 24.7868852,13.0819672 C25.0819672,12.6885246 24.9836066,12.0983607 24.5901639,11.8032787 C24.5901639,11.6065574 24.3934426,11.6065574 24.1967213,11.6065574 L24.1967213,11.6065574 Z" id="Shape"></path>
                                <path d="M25.2786885,29.9016393 C22.2295082,27.147541 15.8360656,20.9508197 13.9672131,19.1803279 C13.5737705,19.5737705 13.1803279,19.8688525 12.8852459,20.0655738 C14.0655738,21.2459016 16.9180328,24 22.9180328,29.4098361 C22.9180328,29.4098361 26.557377,32.557377 32.2622951,37.3770492 C36.9836066,41.4098361 40.4262295,43.4754098 41.704918,44.1639344 L42.4918033,43.3770492 C42.3934426,43.2786885 42.295082,43.2786885 42.1967213,43.1803279 C39.9344262,41.9016393 34.2295082,38.0655738 25.2786885,29.9016393 L25.2786885,29.9016393 Z" id="Shape"></path>
                                <path d="M4.42622951,45.147541 C4.03278689,44.557377 3.73770492,43.9672131 3.44262295,43.3770492 C3.73770492,43.9672131 4.13114754,44.557377 4.42622951,45.147541 L4.42622951,45.147541 Z" id="Shape"></path>
                                <path d="M3.24590164,43.0819672 C2.95081967,42.4918033 2.6557377,41.9016393 2.36065574,41.3114754 C2.6557377,41.9016393 2.95081967,42.4918033 3.24590164,43.0819672 L3.24590164,43.0819672 Z" id="Shape"></path>
                                <path d="M2.36065574,41.1147541 C2.06557377,40.5245902 1.86885246,39.8360656 1.57377049,39.147541 C1.86885246,39.8360656 2.06557377,40.4262295 2.36065574,41.1147541 L2.36065574,41.1147541 Z" id="Shape"></path>
                                <path d="M15.2459016,55.3770492 C14.7540984,55.0819672 14.2622951,54.7868852 13.7704918,54.4918033 C14.2622951,54.7868852 14.7540984,55.0819672 15.2459016,55.3770492 L15.2459016,55.3770492 Z" id="Shape"></path>
                                <path d="M18.6885246,38.0655738 C17.2131148,37.2786885 15.6393443,37.0819672 14.1639344,37.5737705 C10.2295082,38.852459 7.57377049,44.2622951 7.47540984,44.6557377 C7.18032787,45.3442623 7.08196721,46.1311475 6.8852459,46.8196721 C7.27868852,47.3114754 7.67213115,47.8032787 8.16393443,48.295082 C8.26229508,47.3114754 8.45901639,46.2295082 8.85245902,45.147541 L8.85245902,45.147541 C8.95081967,44.9508197 11.0163934,40.5245902 14.3606557,39.442623 C15.7377049,38.9508197 17.0163934,39.147541 18.3934426,39.8360656 C23.8032787,42.6885246 25.6721311,51.8360656 25.6721311,52.2295082 L25.7704918,52.5245902 L25.4754098,52.7213115 C25.2786885,52.8196721 22.0327869,54.7868852 18.4918033,55.8688525 C19.3770492,56.2622951 20.2622951,56.557377 21.147541,56.852459 C24.3934426,55.6721311 27.147541,54.1967213 28.0327869,53.6065574 C27.442623,51.5409836 24.8852459,41.3114754 18.6885246,38.0655738 L18.6885246,38.0655738 Z" id="Shape"></path>
                                <path d="M42.6885246,25.4754098 C42.6885246,25.4754098 30.6885246,15.5409836 27.6393443,11.1147541 C26.3606557,9.24590164 24.9836066,8.55737705 23.9016393,8.55737705 C23.2131148,8.55737705 22.7213115,8.85245902 22.3278689,9.24590164 C21.442623,10.3278689 19.1803279,12.6885246 16.9180328,15.147541 C14.6557377,17.6065574 11.3114754,20.1639344 11.3114754,20.1639344 C11.3114754,20.1639344 13.2786885,22.3278689 22.1311475,30.3934426 C22.1311475,30.3934426 25.6721311,33.5409836 31.4754098,38.4590164 C37.8688525,43.8688525 41.704918,45.7377049 41.704918,45.7377049 C41.704918,45.7377049 47.704918,39.8360656 48,39.0491803 C48.3934426,38.2622951 49.8688525,31.5737705 49.8688525,31.5737705 C49.8688525,31.5737705 46.5245902,28.5245902 42.6885246,25.4754098 L42.6885246,25.4754098 Z M41.6065574,44.3606557 C40.3278689,43.5737705 36.9836066,41.5081967 32.1639344,37.5737705 C26.4590164,32.7540984 22.8196721,29.6065574 22.8196721,29.6065574 C16.8196721,24.1967213 13.9672131,21.442623 12.7868852,20.2622951 C13.0819672,19.9672131 13.4754098,19.6721311 13.8688525,19.3770492 C15.7377049,21.147541 22.1311475,27.2459016 25.1803279,30.0983607 C34.1311475,38.2622951 39.8360656,42.0983607 42,43.4754098 C42.0983607,43.5737705 42.1967213,43.6721311 42.295082,43.6721311 C42.1967213,43.7704918 41.9016393,44.0655738 41.6065574,44.3606557 L41.6065574,44.3606557 Z M47.3114754,38.4590164 C47.0163934,38.852459 45.2459016,40.8196721 43.1803279,42.8852459 C43.0819672,42.7868852 42.8852459,42.6885246 42.6885246,42.5901639 C40.5245902,41.2131148 34.9180328,37.4754098 25.9672131,29.3114754 C22.9180328,26.557377 16.6229508,20.557377 14.7540984,18.6885246 C15.7377049,17.8032787 16.8196721,16.8196721 17.704918,15.8360656 C19.9672131,13.4754098 22.1311475,11.0163934 23.1147541,9.93442623 C23.3114754,9.73770492 23.6065574,9.63934426 23.9016393,9.63934426 C24.3934426,9.63934426 25.5737705,9.83606557 26.852459,11.8032787 C29.9016393,16.3278689 41.6065574,25.9672131 42.0983607,26.3606557 C45.0491803,28.8196721 47.8032787,30.9836066 48.8852459,31.8688525 C48.1967213,34.8196721 47.4098361,37.9672131 47.3114754,38.4590164 L47.3114754,38.4590164 Z" id="Shape" fill="#B88310"></path>
                                <path d="M25.3770492,11.0163934 C25.0819672,10.7213115 24.5901639,10.6229508 24.1967213,10.6229508 C23.6065574,10.6229508 23.1147541,10.8196721 22.7213115,11.3114754 C22.1311475,12.0983607 22.2295082,13.2786885 23.0163934,13.9672131 C23.3114754,14.2622951 23.8032787,14.3606557 24.1967213,14.3606557 C24.7868852,14.3606557 25.2786885,14.1639344 25.6721311,13.6721311 C26.3606557,12.7868852 26.1639344,11.6065574 25.3770492,11.0163934 L25.3770492,11.0163934 Z M24.8852459,12.9836066 C24.6885246,13.1803279 24.4918033,13.2786885 24.1967213,13.2786885 C24.0983607,13.2786885 23.9016393,13.2786885 23.704918,13.0819672 C23.5081967,12.9836066 23.4098361,12.6885246 23.4098361,12.4918033 C23.4098361,12.295082 23.4098361,12 23.6065574,11.8032787 C23.8032787,11.6065574 24,11.5081967 24.295082,11.5081967 C24.3934426,11.5081967 24.5901639,11.5081967 24.7868852,11.704918 C25.1803279,12.0983607 25.1803279,12.6885246 24.8852459,12.9836066 L24.8852459,12.9836066 Z" id="Shape" fill="#B88310"></path>
                                <path d="M52.7213115,47.8032787 C54,46.2295082 55.0819672,44.557377 55.9672131,42.7868852 L55.9672131,42.7868852 C56.1639344,42.4918033 56.2622951,42.1967213 56.4590164,41.8032787 C57.0491803,40.5245902 57.5409836,39.147541 57.9344262,37.7704918 C58.0327869,37.4754098 58.1311475,37.0819672 58.2295082,36.7868852 C58.3278689,36.295082 58.5245902,35.704918 58.6229508,35.2131148 C58.6229508,35.1147541 58.6229508,35.0163934 58.7213115,34.8196721 C58.8196721,34.4262295 58.8196721,33.9344262 58.9180328,33.5409836 C58.9180328,33.3442623 58.9180328,33.2459016 59.0163934,33.0491803 C59.0163934,32.6557377 59.1147541,32.2622951 59.1147541,31.7704918 L59.1147541,31.2786885 C59.1147541,30.6885246 59.2131148,30.0983607 59.2131148,29.6065574 C59.0163934,13.1803279 45.8360656,0 29.5081967,0 C13.1803279,0 0,13.1803279 0,29.5081967 C0,30.295082 0,30.9836066 0.0983606557,31.6721311 L0.0983606557,32.1639344 C0.196721311,32.852459 0.196721311,33.5409836 0.393442623,34.2295082 C0.393442623,34.3278689 0.393442623,34.4262295 0.491803279,34.6229508 C0.590163934,35.3114754 0.68852459,35.9016393 0.885245902,36.5901639 C0.885245902,36.6885246 0.885245902,36.7868852 0.983606557,36.7868852 C1.18032787,37.4754098 1.37704918,38.1639344 1.57377049,38.7540984 C1.57377049,38.852459 1.67213115,39.0491803 1.67213115,39.147541 C1.86885246,39.8360656 2.16393443,40.4262295 2.45901639,41.1147541 C2.45901639,41.2131148 2.45901639,41.2131148 2.55737705,41.3114754 C2.85245902,41.9016393 3.14754098,42.4918033 3.44262295,43.0819672 C3.54098361,43.1803279 3.54098361,43.2786885 3.63934426,43.3770492 C3.93442623,43.9672131 4.32786885,44.557377 4.62295082,45.147541 C4.72131148,45.2459016 4.72131148,45.3442623 4.81967213,45.442623 C5.21311475,46.0327869 5.60655738,46.6229508 6,47.2131148 L6,47.2131148 C6.29508197,47.6065574 6.59016393,47.9016393 6.8852459,48.295082 L6.8852459,48.295082 C7.37704918,48.8852459 7.7704918,49.3770492 8.26229508,49.8688525 C8.45901639,50.1639344 8.85245902,50.557377 9.24590164,50.9508197 C10.5245902,52.2295082 12,53.3114754 13.5737705,54.295082 C13.6721311,54.295082 13.6721311,54.3934426 13.7704918,54.3934426 C14.2622951,54.6885246 14.7540984,54.9836066 15.2459016,55.2786885 C15.7377049,55.5737705 16.2295082,55.9672131 16.8196721,56.2622951 C17.2131148,56.4590164 17.704918,56.0655738 18.0983607,57.0491803 L18.0983607,57.0491803 C18.5901639,57.0491803 18.9836066,57.2459016 19.4754098,57.442623 C19.9672131,57.6393443 20.557377,57.7377049 21.0491803,57.9344262 C21.7377049,58.1311475 22.3278689,58.2295082 23.0163934,58.4262295 L23.1147541,58.4262295 C23.8032787,58.5245902 24.4918033,58.7213115 25.1803279,58.8196721 L25.2786885,58.8196721 C25.8688525,58.9180328 26.4590164,59.0163934 27.147541,59.0163934 L27.6393443,59.0163934 C28.3278689,59.0163934 28.9180328,59.1147541 29.6065574,59.1147541 C30.295082,59.1147541 30.8852459,59.1147541 31.4754098,59.0163934 L31.9672131,59.0163934 C32.4590164,59.0163934 33.0491803,58.9180328 33.5409836,58.8196721 L33.9344262,58.8196721 C34.5245902,58.7213115 35.1147541,58.6229508 35.8032787,58.5245902 C35.9016393,58.5245902 36.0983607,58.4262295 36.1967213,58.4262295 C36.6885246,58.3278689 37.1803279,58.2295082 37.6721311,58.0327869 C37.7704918,58.0327869 37.9672131,57.9344262 38.0655738,57.9344262 C38.6557377,57.7377049 39.2459016,57.5409836 39.8360656,57.3442623 L39.9344262,57.3442623 C40.5245902,57.147541 41.0163934,56.9508197 41.5081967,56.6557377 C41.6065574,56.557377 41.704918,56.557377 41.9016393,56.4590164 C43.0819672,55.9672131 44.1639344,55.3770492 45.2459016,54.6885246 C45.3442623,54.6885246 45.442623,54.5901639 45.442623,54.5901639 C45.9344262,54.295082 46.4262295,53.9016393 46.9180328,53.6065574 L47.0163934,53.5081967 C47.5081967,53.1147541 48.0983607,52.7213115 48.5901639,52.3278689 L48.5901639,52.3278689 C49.0819672,51.9344262 49.5737705,51.442623 49.9672131,51.0491803 L50.0655738,50.9508197 C50.9508197,49.7704918 51.8360656,48.8852459 52.7213115,47.8032787 C52.6229508,47.8032787 52.6229508,47.8032787 52.7213115,47.8032787 L52.7213115,47.8032787 Z M55.6721311,40.9180328 L55.5737705,40.8196721 C55.2786885,40.5245902 55.0819672,40.1311475 54.7868852,39.8360656 C53.9016393,38.852459 52.8196721,38.3606557 51.6393443,38.3606557 C51.0491803,38.3606557 50.557377,38.4590164 50.1639344,38.557377 L49.8688525,38.557377 L49.7704918,38.557377 C49.9672131,37.5737705 50.7540984,33.9344262 51.147541,32.557377 C51.5409836,32.852459 54,34.7213115 57.0491803,37.0819672 C56.6557377,38.3606557 56.1639344,39.6393443 55.6721311,40.9180328 L55.6721311,40.9180328 Z M12.3934426,50.9508197 C11.704918,49.8688525 11.6065574,48.1967213 12.1967213,46.5245902 C12.295082,46.3278689 13.4754098,43.9672131 15.147541,43.4754098 C15.7377049,43.2786885 16.3278689,43.3770492 17.0163934,43.6721311 C19.5737705,45.0491803 20.7540984,49.1803279 21.0491803,50.3606557 C20.0655738,50.9508197 17.1147541,52.5245902 14.7540984,52.3278689 C13.7704918,52.2295082 12.8852459,51.7377049 12.3934426,50.9508197 L12.3934426,50.9508197 Z M13.0819672,52.8196721 C13.5737705,53.0163934 14.0655738,53.2131148 14.557377,53.2131148 L14.9508197,53.2131148 C17.9016393,53.2131148 21.5409836,51.0491803 21.6393443,50.9508197 L21.9344262,50.7540984 L21.8360656,50.4590164 C21.8360656,50.2622951 20.6557377,44.557377 17.2131148,42.6885246 C16.3278689,42.1967213 15.442623,42.0983607 14.557377,42.3934426 C12.3934426,43.0819672 11.1147541,45.9344262 11.0163934,46.0327869 L11.0163934,46.0327869 C10.3278689,48 10.4262295,49.9672131 11.3114754,51.3442623 C11.4098361,51.5409836 11.6065574,51.7377049 11.704918,51.8360656 C10.6229508,51.0491803 9.63934426,50.1639344 8.75409836,49.1803279 C8.75409836,48 8.95081967,46.6229508 9.3442623,45.3442623 C9.83606557,45.2459016 11.8032787,41.3114754 14.6557377,40.3278689 C15.7377049,39.9344262 16.8196721,40.0327869 17.9016393,40.6229508 C22.3278689,42.9836066 24.295082,50.2622951 24.6885246,51.9344262 C23.704918,52.5245902 20.3606557,54.3934426 17.0163934,55.0819672 C15.6393443,54.4918033 14.3606557,53.704918 13.0819672,52.8196721 L13.0819672,52.8196721 Z M18.3934426,55.7704918 C22.0327869,54.7868852 25.2786885,52.8196721 25.3770492,52.6229508 L25.6721311,52.4262295 L25.6721311,52.1311475 C25.5737705,51.7377049 23.704918,42.6885246 18.3934426,39.7377049 C17.0163934,39.0491803 15.7377049,38.852459 14.3606557,39.3442623 C11.0163934,40.5245902 8.95081967,44.852459 8.85245902,45.0491803 L8.85245902,45.0491803 C8.45901639,46.1311475 8.26229508,47.2131148 8.16393443,48.1967213 C7.7704918,47.704918 7.27868852,47.2131148 6.8852459,46.7213115 C6.98360656,46.0327869 7.18032787,45.2459016 7.47540984,44.557377 C7.67213115,44.1639344 10.2295082,38.7540984 14.1639344,37.4754098 C15.6393443,36.9836066 17.2131148,37.0819672 18.6885246,37.9672131 C24.7868852,41.2131148 27.442623,51.442623 27.8360656,53.5081967 C26.9508197,54 24.1967213,55.5737705 20.9508197,56.7540984 C20.1639344,56.4590164 19.2786885,56.1639344 18.3934426,55.7704918 L18.3934426,55.7704918 Z M22.7213115,57.2459016 C26.0655738,55.8688525 28.5245902,54.3934426 28.7213115,54.1967213 L29.0163934,54 L28.9180328,53.704918 C28.8196721,53.2131148 26.3606557,41.0163934 19.1803279,37.1803279 C17.4098361,36.1967213 15.6393443,36.0983607 13.8688525,36.6885246 C9.44262295,38.1639344 6.68852459,44.0655738 6.59016393,44.3606557 L6.59016393,44.3606557 C6.39344262,44.852459 6.29508197,45.3442623 6.19672131,45.8360656 C2.85245902,41.2131148 0.983606557,35.6065574 0.983606557,29.5081967 C0.983606557,13.7704918 13.7704918,0.983606557 29.5081967,0.983606557 C45.2459016,0.983606557 58.0327869,13.7704918 58.0327869,29.5081967 C58.0327869,31.7704918 57.7377049,33.9344262 57.2459016,36.0983607 C54,33.6393443 51.6393443,31.7704918 51.6393443,31.7704918 C51.6393443,31.7704918 51.2459016,31.4754098 50.852459,31.4754098 C50.7540984,31.4754098 50.6557377,31.4754098 50.557377,31.5737705 C50.1639344,31.7704918 48.8852459,37.7704918 48.7868852,38.557377 C48.6885246,39.147541 49.1803279,39.6393443 49.8688525,39.6393443 C50.0655738,39.6393443 50.1639344,39.6393443 50.3606557,39.5409836 C50.7540984,39.442623 51.147541,39.3442623 51.6393443,39.3442623 C52.4262295,39.3442623 53.2131148,39.6393443 54,40.5245902 C54.3934426,41.0163934 54.7868852,41.5081967 55.1803279,42 C50.557377,51.442623 40.8196721,58.0327869 29.5081967,58.0327869 C27.147541,58.0327869 24.8852459,57.7377049 22.7213115,57.2459016 L22.7213115,57.2459016 Z" id="Shape" fill="#B88310"></path>
                                <path d="M52.7213115,36.9836066 C52.9180328,36.9836066 53.2131148,36.8852459 53.3114754,36.6885246 C53.6065574,36.3934426 53.5081967,35.9016393 53.2131148,35.6065574 C53.1147541,35.5081967 52.9180328,35.4098361 52.7213115,35.4098361 C52.5245902,35.4098361 52.2295082,35.5081967 52.1311475,35.704918 C51.8360656,36 51.9344262,36.4918033 52.2295082,36.7868852 C52.3278689,36.9836066 52.5245902,36.9836066 52.7213115,36.9836066 L52.7213115,36.9836066 Z" id="Shape" fill="#B88310"></path>
                                <path d="M15.442623,50.1639344 C16.6229508,50.1639344 17.9016393,49.3770492 18.0983607,49.2786885 L18.3934426,49.0819672 L18.295082,48.7868852 C18.295082,48.5901639 17.8032787,46.4262295 16.4262295,45.7377049 C16.0327869,45.5409836 15.6393443,45.442623 15.2459016,45.6393443 C14.3606557,45.9344262 13.8688525,47.0163934 13.7704918,47.1147541 L13.7704918,47.1147541 C13.4754098,47.9016393 13.5737705,48.7868852 13.9672131,49.3770492 C14.2622951,49.8688525 14.7540984,50.1639344 15.3442623,50.1639344 C15.3442623,50.1639344 15.442623,50.1639344 15.442623,50.1639344 L15.442623,50.1639344 Z M14.6557377,47.5081967 C14.7540984,47.3114754 15.147541,46.7213115 15.5409836,46.5245902 C15.6393443,46.5245902 15.8360656,46.5245902 15.9344262,46.6229508 C16.6229508,47.0163934 17.0163934,48 17.2131148,48.6885246 C16.7213115,48.9836066 15.9344262,49.2786885 15.2459016,49.2786885 C14.9508197,49.2786885 14.7540984,49.1803279 14.6557377,48.8852459 C14.557377,48.4918033 14.557377,48 14.6557377,47.5081967 L14.6557377,47.5081967 Z" id="Shape" fill="#B88310"></path>
                            </g>
                        </g>
                    </g>
                </g>
            </g>
        </g>
    </g>
</svg>