<?xml version="1.0" encoding="utf-8"?>
<!-- Generator: Adobe Illustrator 20.0.0, SVG Export Plug-In . SVG Version: 6.00 Build 0)  -->
<svg version="1.1" id="Слой_1" xmlns="http://www.w3.org/2000/svg" xmlns:xlink="http://www.w3.org/1999/xlink" x="0px" y="0px"
	 viewBox="0 0 60 60" style="enable-background:new 0 0 60 60;" xml:space="preserve">
<style type="text/css">
	.st0{fill:none;}
	.st1{fill:#B88310;}
</style>
<path class="st0" d="M48,38.1c0.1,0,0.2,0,0.3-0.1l1.4-1c0.1-0.1,0.2-0.2,0.2-0.3c0-0.1,0-0.2-0.1-0.3c-0.1-0.2-0.4-0.2-0.6-0.1
	l-1.4,1c-0.2,0.1-0.2,0.4-0.1,0.6C47.8,38,47.9,38,48,38.1z"/>
<path class="st0" d="M52.6,34.9l1.4-1c0.1-0.1,0.2-0.2,0.2-0.3c0-0.1,0-0.2-0.1-0.3C54,33,53.7,33,53.5,33.1l-1.4,1
	c-0.2,0.1-0.2,0.4-0.1,0.6S52.4,35,52.6,34.9z"/>
<path class="st0" d="M57.3,40.4c-0.1,0.2-0.2,0.3-0.3,0.5c-0.3,0.2-0.6,0.4-1,0.3L54.3,41c-0.4,0-0.7-0.2-0.9-0.5
	c-0.1-0.2-0.2-0.3-0.2-0.5L52,39.9c-0.2,0.5-0.7,0.8-1.3,0.8c0.1,0.3,0.2,0.6,0.3,0.9l0.1,0.5c0.2,0.6,0,1.3-0.5,1.6l-9.4,7.8
	c-0.5,0.4-1.1,0.5-1.7,0.2L39,51.6c-1.2-0.7-2.3-1.5-3.1-2.5s-1.5-2.2-1.8-3.5L33.9,45c-0.2-0.6,0-1.3,0.5-1.6l9.4-7.8
	c0.5-0.4,1.1-0.5,1.7-0.2l0.5,0.2c0.5,0.2,1,0.5,1.5,0.9c0,0,0,0,0,0l1.3-0.9c0.5-0.3,1.1-0.3,1.5,0l0.9-0.6c-0.1-0.2-0.1-0.4,0-0.6
	c0.1-0.3,0.2-0.6,0.5-0.9l1.4-1c0.5-0.3,1.1-0.3,1.5,0l0.8-0.6c-0.1-0.2-0.1-0.4,0-0.6c0-0.3,0.2-0.6,0.5-0.9l1.4-1
	c0.6-0.4,1.4-0.3,1.8,0.3c0.4,0.6,0.3,1.4-0.3,1.8l-1.4,1c-0.5,0.3-1.1,0.3-1.5,0L55,33.1c0.2,0.5,0,1.1-0.5,1.4l-1.4,1
	c-0.5,0.3-1.1,0.3-1.5,0l-0.9,0.6c0.2,0.5,0,1.1-0.5,1.4L49.8,38l1.1,0.1c0.5,0,1,0.5,1.1,0.9l1.1,0.1c0.2-0.5,0.7-0.8,1.3-0.8
	l1.7,0.2c0.6,0.1,1,0.5,1.2,1l1,0.1c1-3,1.6-6.2,1.6-9.6C60,13.4,46.6,0,30,0S0,13.4,0,30s13.4,30,30,30c12.9,0,23.9-8.1,28.1-19.5
	L57.3,40.4z"/>
<path class="st0" d="M56.2,39.4l-1.7-0.2c-0.2,0-0.5,0.1-0.5,0.4s0.1,0.5,0.4,0.5l1.7,0.2c0.1,0,0.2,0,0.3-0.1
	c0.1-0.1,0.1-0.2,0.2-0.3c0-0.1,0-0.2-0.1-0.3S56.3,39.4,56.2,39.4z"/>
<path class="st0" d="M56.9,31.8l1.4-1c0.1-0.1,0.2-0.2,0.2-0.3c0-0.1,0-0.2-0.1-0.3c-0.1-0.2-0.4-0.2-0.6-0.1l-1.4,1
	c-0.2,0.1-0.2,0.4-0.1,0.6C56.5,31.9,56.7,31.9,56.9,31.8z"/>
<path class="st0" d="M50.9,39l-1.1-0.1c0.2,0.3,0.4,0.6,0.5,0.9l0.5,0c0.2,0,0.4-0.1,0.5-0.3c0,0,0-0.1,0-0.1c0,0,0,0,0-0.1
	C51.3,39.1,51.1,39,50.9,39z"/>
<path class="st0" d="M49.6,40.4C49.6,40.4,49.6,40.4,49.6,40.4c-0.3-0.5-0.6-1-0.9-1.5c-0.3,0.2-0.5,0.3-0.9,0.2
	c-0.7-0.1-1.3-0.7-1.2-1.4l0.1-0.7c-0.4-0.2-0.7-0.4-1.1-0.6l-0.5-0.2c-0.3-0.1-0.5-0.1-0.8,0.1l-9.4,7.8c-0.2,0.2-0.3,0.5-0.3,0.7
	l0.1,0.6c0.6,2.3,2.3,4.3,4.4,5.3l0.5,0.2c0.3,0.1,0.5,0.1,0.8-0.1L50,43c0.2-0.2,0.3-0.5,0.3-0.7l-0.1-0.5
	C50,41.3,49.8,40.9,49.6,40.4z M41,48.3c-0.2,0.2-0.5,0.1-0.6-0.1l-2.8-3.4c-0.2-0.2-0.1-0.5,0.1-0.6c0.2-0.2,0.5-0.1,0.6,0.1
	l2.8,3.4C41.2,47.8,41.2,48.1,41,48.3z M43,46.6c-0.2,0.2-0.5,0.1-0.6-0.1l-2.8-3.4c-0.2-0.2-0.1-0.5,0.1-0.6
	c0.2-0.2,0.5-0.1,0.6,0.1l2.8,3.4C43.3,46.1,43.2,46.4,43,46.6z M45.1,44.9c-0.2,0.2-0.5,0.1-0.6-0.1l-2.8-3.4
	c-0.2-0.2-0.1-0.5,0.1-0.6c0.2-0.2,0.5-0.1,0.6,0.1l2.8,3.4C45.3,44.4,45.3,44.7,45.1,44.9z M47.1,43.2c-0.2,0.2-0.5,0.1-0.6-0.1
	l-2.8-3.4c-0.2-0.2-0.1-0.5,0.1-0.6s0.5-0.1,0.6,0.1l2.8,3.4C47.3,42.7,47.3,43,47.1,43.2z"/>
<g>
	<path class="st1" d="M43.7,39.1c-0.2,0.2-0.2,0.4-0.1,0.6l2.8,3.4c0.2,0.2,0.4,0.2,0.6,0.1c0.2-0.2,0.2-0.4,0.1-0.6l-2.8-3.4
		C44.1,38.9,43.9,38.9,43.7,39.1z"/>
	<path class="st1" d="M42.3,40.8c-0.2-0.2-0.4-0.2-0.6-0.1c-0.2,0.2-0.2,0.4-0.1,0.6l2.8,3.4c0.2,0.2,0.4,0.2,0.6,0.1
		c0.2-0.2,0.2-0.4,0.1-0.6L42.3,40.8z"/>
	<path class="st1" d="M40.2,42.5c-0.2-0.2-0.4-0.2-0.6-0.1c-0.2,0.2-0.2,0.4-0.1,0.6l2.8,3.4c0.2,0.2,0.4,0.2,0.6,0.1
		c0.2-0.2,0.2-0.4,0.1-0.6L40.2,42.5z"/>
	<path class="st1" d="M38.2,44.2C38,44,37.8,44,37.6,44.2c-0.2,0.2-0.2,0.4-0.1,0.6l2.8,3.4c0.2,0.2,0.4,0.2,0.6,0.1
		c0.2-0.2,0.2-0.4,0.1-0.6L38.2,44.2z"/>
	<path class="st1" d="M58.4,39.6L58.4,39.6c1-3,1.6-6.2,1.6-9.6C60,13.4,46.6,0,30,0c-0.7,0-1.3,0-2,0.1c0,0,0,0,0,0
		c-3,0.2-6,0.8-8.7,1.9v0C19.2,2,19,2.1,18.8,2.2C7.8,6.6,0,17.4,0,30c0,16.6,13.4,30,30,30c12.9,0,23.9-8.1,28.1-19.5l0,0
		c0,0,0,0,0,0C58.2,40.2,58.3,39.9,58.4,39.6C58.4,39.6,58.4,39.6,58.4,39.6z M56.2,38.5l-1.7-0.2c-0.6-0.1-1.1,0.3-1.3,0.8L52,39
		c-0.2-0.5-0.6-0.9-1.1-0.9L49.8,38l0.4-0.3c0.5-0.3,0.6-0.9,0.5-1.4l0.9-0.6c0.4,0.3,1,0.3,1.5,0l1.4-1c0.5-0.3,0.6-0.9,0.5-1.4
		l0.9-0.6c0.4,0.3,1,0.3,1.5,0l1.4-1c0.1,0,0.1-0.1,0.1-0.1c-0.1,2.9-0.7,5.6-1.6,8.2C57.3,39,56.8,38.6,56.2,38.5z M56.6,39.9
		c0,0.1-0.1,0.2-0.2,0.3c-0.1,0.1-0.2,0.1-0.3,0.1l-1.7-0.2c-0.2,0-0.4-0.2-0.4-0.5s0.2-0.4,0.5-0.4l1.7,0.2c0.1,0,0.2,0.1,0.3,0.2
		S56.6,39.7,56.6,39.9z M51.3,39.5c-0.1,0.2-0.2,0.3-0.5,0.3l-0.5,0c-0.2-0.3-0.3-0.6-0.5-0.9l1.1,0.1c0.2,0,0.4,0.2,0.4,0.4
		c0,0,0,0,0,0.1C51.3,39.4,51.3,39.5,51.3,39.5z M47.8,39.2c0.3,0.1,0.6-0.1,0.9-0.2c0.4,0.5,0.7,0.9,0.9,1.4c0,0,0,0,0,0
		c0.2,0.4,0.4,0.9,0.5,1.4l0.1,0.5c0,0.3-0.1,0.6-0.3,0.7l-9.4,7.9c-0.2,0.2-0.5,0.2-0.8,0.1l-0.5-0.2c-2.2-1-3.8-3-4.4-5.3
		l-0.1-0.6c0-0.3,0.1-0.6,0.3-0.7l9.4-7.8c0.2-0.2,0.5-0.2,0.8-0.1l0.5,0.2c0.4,0.2,0.7,0.4,1.1,0.6l-0.1,0.7
		C46.5,38.5,47.1,39.1,47.8,39.2z M47.8,37.3l1.4-1c0.2-0.1,0.5-0.1,0.6,0.1c0.1,0.1,0.1,0.2,0.1,0.3c0,0.1-0.1,0.2-0.2,0.3l-1.4,1
		c-0.1,0.1-0.2,0.1-0.3,0.1c-0.1,0-0.2-0.1-0.3-0.2C47.6,37.7,47.6,37.4,47.8,37.3z M52.1,34.2l1.4-1c0.2-0.1,0.5-0.1,0.6,0.1
		c0.1,0.1,0.1,0.2,0.1,0.3c0,0.1-0.1,0.2-0.2,0.3l-1.4,1C52.4,35,52.2,35,52,34.8S51.9,34.3,52.1,34.2z M56.4,31.1l1.4-1
		c0.2-0.1,0.5-0.1,0.6,0.1c0.1,0.1,0.1,0.2,0.1,0.3c0,0.1-0.1,0.2-0.2,0.3l-1.4,1c-0.2,0.1-0.5,0.1-0.6-0.1
		C56.2,31.5,56.2,31.2,56.4,31.1z M19.6,4.2c0-0.4-0.1-0.8-0.1-1.2c2.7-1,5.5-1.7,8.5-1.9c-0.2,3.4-0.3,6.5,0.1,7.4
		c0.3,0.7,0.8,1.3,1.5,1.9c-1.3-0.4-3.1-0.7-5.3-0.7c-2.3,0-4.1,0.4-5.5,0.9c0.3-0.4,0.6-0.8,0.9-1.4C20.1,8.3,19.8,6.5,19.6,4.2z
		 M21.4,19.6c2.2-0.2,5.4-0.3,9.3,0c-0.2,2.7-1,15.5-2.6,21.7c-1.2,4.8-3.7,8.4-5,10.1C23.7,39.6,21.8,22.7,21.4,19.6z M22.2,48.6
		c-4-21.4-4.2-27.3-4.1-28.6c0.4-0.1,1.2-0.2,2.3-0.3C20.7,22.5,22.4,37.1,22.2,48.6z M18.7,18.9c1-1.6,1.4-3.7,1.4-3.8l-0.1,0
		c1.1-0.3,2.5-0.5,4.1-0.5c1.9,0,3.4,0.2,4.6,0.5c0,1.7,0.5,2.9,1.1,3.6C24.4,18.2,20.6,18.6,18.7,18.9z M24.2,13.5
		c-4.5,0-7.1,1.6-8.1,2.4c-0.2-0.5-0.5-1.2-0.4-1.9c0-0.3,0.2-0.6,0.5-0.9l0,0c0,0,2.6-2.5,7.9-2.5c5.4,0,8,1.8,8,1.9l0,0
		c0.2,0.2,0.4,0.3,0.5,0.4c0.2,0.3,0,1.3-0.4,2.3C31.3,14.6,28.6,13.5,24.2,13.5z M30,59C14,59,1,46,1,30C1,18.1,8.2,7.8,18.5,3.4
		c0,0.3,0.1,0.6,0.1,0.9c0.2,1.9,0.4,3.8,0.1,4.4c-0.9,1.6-1.8,2.4-2.6,3.1c-0.7,0.6-1.3,1.1-1.4,2c-0.2,1.6,0.8,3,0.8,3.1l0.3,0.5
		l0.4-0.4c0,0,0.9-0.9,2.8-1.6c-0.3,0.9-0.9,2.9-1.8,3.8l-0.1,0.1l0,0.1c0,0.2-0.8,4.3,4.9,33.6l0.2,0.9l0.7-0.7
		c0.2-0.2,4.4-4.6,6.2-11.7c1.8-7,2.6-22.3,2.6-22.4l0-0.3l-0.3-0.1c-0.1,0-1.5-0.8-1.6-3.4c1.6,0.5,2.4,1.1,2.4,1.1l0.5,0.4
		l0.3-0.5c0.3-0.6,1.2-2.8,0.5-3.8C33.3,12,32.7,11.6,32,11c-1.1-0.8-2.5-1.9-3-3c-0.3-0.7-0.2-3.6,0-7c0.3,0,0.7,0,1,0
		c15.8,0,28.7,12.7,29,28.5c-0.4-0.5-1.1-0.6-1.7-0.2l-1.4,1c-0.3,0.2-0.5,0.5-0.5,0.9c0,0.2,0,0.4,0,0.6l-0.8,0.6
		c-0.4-0.3-1-0.3-1.5,0l-1.4,1c-0.3,0.2-0.5,0.5-0.5,0.9c0,0.2,0,0.4,0,0.6l-0.9,0.6c-0.4-0.3-1-0.3-1.5,0l-1.3,0.9c0,0,0,0,0,0
		c-0.5-0.3-1-0.6-1.5-0.9l-0.5-0.2c-0.6-0.3-1.2-0.2-1.7,0.2l-9.4,7.8c-0.5,0.4-0.7,1-0.5,1.6l0.1,0.6c0.4,1.3,1,2.5,1.8,3.5
		s1.9,1.8,3.1,2.5l0.5,0.2c0.6,0.3,1.2,0.2,1.7-0.2l9.4-7.8c0.5-0.4,0.7-1,0.5-1.6L51,41.6c-0.1-0.3-0.2-0.6-0.3-0.9
		c0.6,0.1,1.1-0.3,1.3-0.8l1.1,0.1c0,0.2,0.1,0.4,0.2,0.5c0.2,0.3,0.5,0.5,0.9,0.5l1.7,0.2c0.3,0.1,0.6,0,0.9-0.2
		C52.5,51.5,42.1,59,30,59z"/>
</g>
</svg>
